solid OpenSCAD_Model
  facet normal 0 0 -1
    outer loop
      vertex 0 4 8.75
      vertex 20 8.25 8.75
      vertex 20 4 8.75
    endloop
  endfacet
  facet normal -0 0 -1
    outer loop
      vertex 20 8.25 8.75
      vertex 0 4 8.75
      vertex 0 8.25 8.75
    endloop
  endfacet
  facet normal -0 0 1
    outer loop
      vertex 0 12 -8.75
      vertex 20 4 -8.75
      vertex 20 12 -8.75
    endloop
  endfacet
  facet normal 0 0 1
    outer loop
      vertex 20 4 -8.75
      vertex 0 12 -8.75
      vertex 0 4 -8.75
    endloop
  endfacet
  facet normal 0 1 -0
    outer loop
      vertex 20 4 -8.75
      vertex 0 4 8.75
      vertex 20 4 8.75
    endloop
  endfacet
  facet normal 0 1 0
    outer loop
      vertex 0 4 8.75
      vertex 20 4 -8.75
      vertex 0 4 -8.75
    endloop
  endfacet
  facet normal 0 0.707107 0.707107
    outer loop
      vertex 20 8.25 8.75
      vertex 0 5.25 11.75
      vertex 20 5.25 11.75
    endloop
  endfacet
  facet normal 0 0.707107 0.707107
    outer loop
      vertex 0 5.25 11.75
      vertex 20 8.25 8.75
      vertex 0 8.25 8.75
    endloop
  endfacet
  facet normal -1 0 0
    outer loop
      vertex 0 12 -11.75
      vertex 0 4 -8.75
      vertex 0 12 -8.75
    endloop
  endfacet
  facet normal -1 -0 0
    outer loop
      vertex 0 4 -8.75
      vertex 0 0 -11.75
      vertex 0 4 8.75
    endloop
  endfacet
  facet normal -1 0 0
    outer loop
      vertex 0 0 -11.75
      vertex 0 4 -8.75
      vertex 0 12 -11.75
    endloop
  endfacet
  facet normal -1 0 0
    outer loop
      vertex 0 4 8.75
      vertex 0 5.25 11.75
      vertex 0 8.25 8.75
    endloop
  endfacet
  facet normal -1 0 0
    outer loop
      vertex 0 4 8.75
      vertex 0 0 11.75
      vertex 0 5.25 11.75
    endloop
  endfacet
  facet normal -1 0 0
    outer loop
      vertex 0 0 11.75
      vertex 0 4 8.75
      vertex 0 0 -11.75
    endloop
  endfacet
  facet normal -0 0 1
    outer loop
      vertex 0 5.25 11.75
      vertex 20 0 11.75
      vertex 20 5.25 11.75
    endloop
  endfacet
  facet normal 0 0 1
    outer loop
      vertex 20 0 11.75
      vertex 0 5.25 11.75
      vertex 0 0 11.75
    endloop
  endfacet
  facet normal 1 0 0
    outer loop
      vertex 20 5.25 11.75
      vertex 20 4 8.75
      vertex 20 8.25 8.75
    endloop
  endfacet
  facet normal 1 0 0
    outer loop
      vertex 20 4 8.75
      vertex 20 0 11.75
      vertex 20 4 -8.75
    endloop
  endfacet
  facet normal 1 -0 0
    outer loop
      vertex 20 0 11.75
      vertex 20 4 8.75
      vertex 20 5.25 11.75
    endloop
  endfacet
  facet normal 1 -0 0
    outer loop
      vertex 20 4 -8.75
      vertex 20 12 -11.75
      vertex 20 12 -8.75
    endloop
  endfacet
  facet normal 1 0 0
    outer loop
      vertex 20 4 -8.75
      vertex 20 0 -11.75
      vertex 20 12 -11.75
    endloop
  endfacet
  facet normal 1 0 0
    outer loop
      vertex 20 0 -11.75
      vertex 20 4 -8.75
      vertex 20 0 11.75
    endloop
  endfacet
  facet normal 0 0 -1
    outer loop
      vertex 0 0 -11.75
      vertex 20 12 -11.75
      vertex 20 0 -11.75
    endloop
  endfacet
  facet normal -0 0 -1
    outer loop
      vertex 20 12 -11.75
      vertex 0 0 -11.75
      vertex 0 12 -11.75
    endloop
  endfacet
  facet normal 0 -1 0
    outer loop
      vertex 0 0 -11.75
      vertex 20 0 11.75
      vertex 0 0 11.75
    endloop
  endfacet
  facet normal 0 -1 -0
    outer loop
      vertex 20 0 11.75
      vertex 0 0 -11.75
      vertex 20 0 -11.75
    endloop
  endfacet
  facet normal 0 1 -0
    outer loop
      vertex 20 12 -11.75
      vertex 0 12 -8.75
      vertex 20 12 -8.75
    endloop
  endfacet
  facet normal 0 1 0
    outer loop
      vertex 0 12 -8.75
      vertex 20 12 -11.75
      vertex 0 12 -11.75
    endloop
  endfacet
endsolid OpenSCAD_Model
