solid OpenSCAD_Model
  facet normal 0 -0.309017 0.951057
    outer loop
      vertex 22.75 13 53
      vertex 27 11.2366 52.4271
      vertex 27 13 53
    endloop
  endfacet
  facet normal 0 -0.309017 0.951057
    outer loop
      vertex 27 11.2366 52.4271
      vertex 22.75 13 53
      vertex 22.75 11.2366 52.4271
    endloop
  endfacet
  facet normal 1.36239e-007 0 -1
    outer loop
      vertex 20 13 -6
      vertex 27 23 -6
      vertex 27 13 -6
    endloop
  endfacet
  facet normal 1.36239e-007 0 -1
    outer loop
      vertex 27 23 -6
      vertex 20 13 -6
      vertex 20 23 -6
    endloop
  endfacet
  facet normal 0 -0.809017 0.587785
    outer loop
      vertex 22.75 10.1468 50.9271
      vertex 27 11.2366 52.4271
      vertex 22.75 11.2366 52.4271
    endloop
  endfacet
  facet normal 0 -0.809017 0.587785
    outer loop
      vertex 27 11.2366 52.4271
      vertex 22.75 10.1468 50.9271
      vertex 27 10.1468 50.9271
    endloop
  endfacet
  facet normal 0 1 -0
    outer loop
      vertex 27 25.8532 -3.92705
      vertex 20 25.8532 50.9271
      vertex 27 25.8532 50.9271
    endloop
  endfacet
  facet normal 0 1 0
    outer loop
      vertex 20 25.8532 50.9271
      vertex 27 25.8532 -3.92705
      vertex 20 25.8532 -3.92705
    endloop
  endfacet
  facet normal 1.29571e-007 -0.309017 -0.951057
    outer loop
      vertex 27 11.2366 -5.42705
      vertex 20 13 -6
      vertex 27 13 -6
    endloop
  endfacet
  facet normal 0 -1 0
    outer loop
      vertex 20 10.1468 0
      vertex 20 10.1468 -3.92705
      vertex 22.75 10.1468 0
    endloop
  endfacet
  facet normal 0 -1 0
    outer loop
      vertex 22.75 10.1468 0
      vertex 27 10.1468 50.9271
      vertex 22.75 10.1468 50.9271
    endloop
  endfacet
  facet normal 0 -1 0
    outer loop
      vertex 22.75 10.1468 0
      vertex 27 10.1468 -3.92705
      vertex 27 10.1468 50.9271
    endloop
  endfacet
  facet normal 0 -1 0
    outer loop
      vertex 27 10.1468 -3.92705
      vertex 22.75 10.1468 0
      vertex 20 10.1468 -3.92705
    endloop
  endfacet
  facet normal 1 -0 0
    outer loop
      vertex 27 18.5 44.1
      vertex 27 19.799 15.55
      vertex 27 19.799 44.85
    endloop
  endfacet
  facet normal 1 0 0
    outer loop
      vertex 27 18.5 44.1
      vertex 27 18.5 16.3
      vertex 27 19.799 15.55
    endloop
  endfacet
  facet normal 1 0 0
    outer loop
      vertex 27 17.201 44.85
      vertex 27 18.5 16.3
      vertex 27 18.5 44.1
    endloop
  endfacet
  facet normal 1 0 0
    outer loop
      vertex 27 18.5 16.3
      vertex 27 17.201 44.85
      vertex 27 17.201 15.55
    endloop
  endfacet
  facet normal 1 0 0
    outer loop
      vertex 27 23 53
      vertex 27 25.8532 50.9271
      vertex 27 24.7634 52.4271
    endloop
  endfacet
  facet normal 1 0 0
    outer loop
      vertex 27 25.8532 50.9271
      vertex 27 19.799 15.55
      vertex 27 25.8532 -3.92705
    endloop
  endfacet
  facet normal 1 -0 0
    outer loop
      vertex 27 24.6934 -3.12543
      vertex 27 25.8532 -3.92705
      vertex 27 24.6934 -2.87457
    endloop
  endfacet
  facet normal 1 0 0
    outer loop
      vertex 27 25.8532 -3.92705
      vertex 27 24.6413 -2.62918
      vertex 27 24.6934 -2.87457
    endloop
  endfacet
  facet normal 1 -0 0
    outer loop
      vertex 27 19.799 14.05
      vertex 27 25.8532 -3.92705
      vertex 27 19.799 15.55
    endloop
  endfacet
  facet normal 1 0 0
    outer loop
      vertex 27 25.8532 -3.92705
      vertex 27 24.5392 -2.4
      vertex 27 24.6413 -2.62918
    endloop
  endfacet
  facet normal 1 -0 -0
    outer loop
      vertex 27 24.3918 -2.19704
      vertex 27 25.8532 -3.92705
      vertex 27 19.799 14.05
    endloop
  endfacet
  facet normal 1 0 0
    outer loop
      vertex 27 25.8532 -3.92705
      vertex 27 24.3918 -2.19704
      vertex 27 24.5392 -2.4
    endloop
  endfacet
  facet normal 1 0 0
    outer loop
      vertex 27 24.3918 -2.19704
      vertex 27 19.799 14.05
      vertex 27 24.2053 -2.02918
    endloop
  endfacet
  facet normal 1 0 0
    outer loop
      vertex 27 24.2053 -2.02918
      vertex 27 19.799 14.05
      vertex 27 23.9881 -1.90374
    endloop
  endfacet
  facet normal 1 0 0
    outer loop
      vertex 27 23.9881 -1.90374
      vertex 27 19.799 14.05
      vertex 27 23.7495 -1.82622
    endloop
  endfacet
  facet normal 1 0 0
    outer loop
      vertex 27 23.7495 -1.82622
      vertex 27 19.799 14.05
      vertex 27 23.5 -1.8
    endloop
  endfacet
  facet normal 1 0 0
    outer loop
      vertex 27 25.8532 50.9271
      vertex 27 23 53
      vertex 27 19.799 46.35
    endloop
  endfacet
  facet normal 1 -0 0
    outer loop
      vertex 27 18.5 13.3
      vertex 27 23.5 -1.8
      vertex 27 19.799 14.05
    endloop
  endfacet
  facet normal 1 0 0
    outer loop
      vertex 27 23.5 -1.8
      vertex 27 18.5 13.3
      vertex 27 23.2505 -1.82622
    endloop
  endfacet
  facet normal 1 0 0
    outer loop
      vertex 27 23.2505 -1.82622
      vertex 27 18.5 13.3
      vertex 27 23.0119 -1.90374
    endloop
  endfacet
  facet normal 1 0 0
    outer loop
      vertex 27 23.0119 -1.90374
      vertex 27 18.5 13.3
      vertex 27 22.7947 -2.02918
    endloop
  endfacet
  facet normal 1 0 0
    outer loop
      vertex 27 14.6934 -2.87457
      vertex 27 22.7947 -2.02918
      vertex 27 18.5 13.3
    endloop
  endfacet
  facet normal 1 0 0
    outer loop
      vertex 27 25.8532 50.9271
      vertex 27 19.799 44.85
      vertex 27 19.799 15.55
    endloop
  endfacet
  facet normal 1 0 0
    outer loop
      vertex 27 25.8532 50.9271
      vertex 27 19.799 46.35
      vertex 27 19.799 44.85
    endloop
  endfacet
  facet normal 1 0 0
    outer loop
      vertex 27 23 53
      vertex 27 18.5 47.1
      vertex 27 19.799 46.35
    endloop
  endfacet
  facet normal 1 -0 0
    outer loop
      vertex 27 13 53
      vertex 27 18.5 47.1
      vertex 27 23 53
    endloop
  endfacet
  facet normal 1 0 0
    outer loop
      vertex 27 10.1468 50.9271
      vertex 27 17.201 44.85
      vertex 27 17.201 46.35
    endloop
  endfacet
  facet normal 1 0 0
    outer loop
      vertex 27 17.201 44.85
      vertex 27 10.1468 50.9271
      vertex 27 17.201 15.55
    endloop
  endfacet
  facet normal 1 0 0
    outer loop
      vertex 27 10.1468 -3.92705
      vertex 27 17.201 15.55
      vertex 27 10.1468 50.9271
    endloop
  endfacet
  facet normal 1 0 0
    outer loop
      vertex 27 17.201 14.05
      vertex 27 14.6413 -2.62918
      vertex 27 14.6934 -2.87457
    endloop
  endfacet
  facet normal 1 0 0
    outer loop
      vertex 27 17.201 14.05
      vertex 27 14.5392 -2.4
      vertex 27 14.6413 -2.62918
    endloop
  endfacet
  facet normal 1 0 0
    outer loop
      vertex 27 17.201 14.05
      vertex 27 14.3918 -2.19704
      vertex 27 14.5392 -2.4
    endloop
  endfacet
  facet normal 1 0 0
    outer loop
      vertex 27 17.201 14.05
      vertex 27 14.2053 -2.02918
      vertex 27 14.3918 -2.19704
    endloop
  endfacet
  facet normal 1 0 0
    outer loop
      vertex 27 17.201 14.05
      vertex 27 13.9881 -1.90374
      vertex 27 14.2053 -2.02918
    endloop
  endfacet
  facet normal 1 0 0
    outer loop
      vertex 27 17.201 14.05
      vertex 27 13.7495 -1.82622
      vertex 27 13.9881 -1.90374
    endloop
  endfacet
  facet normal 1 0 0
    outer loop
      vertex 27 17.201 14.05
      vertex 27 13.5 -1.8
      vertex 27 13.7495 -1.82622
    endloop
  endfacet
  facet normal 1 0 0
    outer loop
      vertex 27 17.201 14.05
      vertex 27 13.2505 -1.82622
      vertex 27 13.5 -1.8
    endloop
  endfacet
  facet normal 1 0 0
    outer loop
      vertex 27 17.201 14.05
      vertex 27 13.0119 -1.90374
      vertex 27 13.2505 -1.82622
    endloop
  endfacet
  facet normal 1 0 0
    outer loop
      vertex 27 18.5 47.1
      vertex 27 13 53
      vertex 27 17.201 46.35
    endloop
  endfacet
  facet normal 1 -0 0
    outer loop
      vertex 27 10.1468 50.9271
      vertex 27 17.201 46.35
      vertex 27 13 53
    endloop
  endfacet
  facet normal 1 0 0
    outer loop
      vertex 27 17.201 15.55
      vertex 27 10.1468 -3.92705
      vertex 27 17.201 14.05
    endloop
  endfacet
  facet normal 1 0 0
    outer loop
      vertex 27 17.201 14.05
      vertex 27 12.7947 -2.02918
      vertex 27 13.0119 -1.90374
    endloop
  endfacet
  facet normal 1 0 0
    outer loop
      vertex 27 17.201 14.05
      vertex 27 10.1468 -3.92705
      vertex 27 12.7947 -2.02918
    endloop
  endfacet
  facet normal 1 0 0
    outer loop
      vertex 27 12.7947 -2.02918
      vertex 27 10.1468 -3.92705
      vertex 27 12.6082 -2.19704
    endloop
  endfacet
  facet normal 1 0 0
    outer loop
      vertex 27 12.6082 -2.19704
      vertex 27 10.1468 -3.92705
      vertex 27 12.4608 -2.4
    endloop
  endfacet
  facet normal 1 0 0
    outer loop
      vertex 27 12.4608 -2.4
      vertex 27 10.1468 -3.92705
      vertex 27 12.3587 -2.62918
    endloop
  endfacet
  facet normal 1 0 0
    outer loop
      vertex 27 10.1468 50.9271
      vertex 27 13 53
      vertex 27 11.2366 52.4271
    endloop
  endfacet
  facet normal 1 -0 0
    outer loop
      vertex 27 24.6413 -3.37082
      vertex 27 25.8532 -3.92705
      vertex 27 24.6934 -3.12543
    endloop
  endfacet
  facet normal 1 -0 0
    outer loop
      vertex 27 24.5392 -3.6
      vertex 27 25.8532 -3.92705
      vertex 27 24.6413 -3.37082
    endloop
  endfacet
  facet normal 1 -0 0
    outer loop
      vertex 27 24.3918 -3.80296
      vertex 27 25.8532 -3.92705
      vertex 27 24.5392 -3.6
    endloop
  endfacet
  facet normal 1 0 0
    outer loop
      vertex 27 25.8532 -3.92705
      vertex 27 24.3918 -3.80296
      vertex 27 24.7634 -5.42705
    endloop
  endfacet
  facet normal 1 -0 0
    outer loop
      vertex 27 24.2053 -3.97082
      vertex 27 24.7634 -5.42705
      vertex 27 24.3918 -3.80296
    endloop
  endfacet
  facet normal 1 -0 0
    outer loop
      vertex 27 23.9881 -4.09625
      vertex 27 24.7634 -5.42705
      vertex 27 24.2053 -3.97082
    endloop
  endfacet
  facet normal 1 -0 0
    outer loop
      vertex 27 23.7495 -4.17378
      vertex 27 24.7634 -5.42705
      vertex 27 23.9881 -4.09625
    endloop
  endfacet
  facet normal 1 -0 0
    outer loop
      vertex 27 23.5 -4.2
      vertex 27 24.7634 -5.42705
      vertex 27 23.7495 -4.17378
    endloop
  endfacet
  facet normal 1 0 0
    outer loop
      vertex 27 23 -6
      vertex 27 23.5 -4.2
      vertex 27 23.2505 -4.17378
    endloop
  endfacet
  facet normal 1 0 0
    outer loop
      vertex 27 23 -6
      vertex 27 23.2505 -4.17378
      vertex 27 23.0119 -4.09625
    endloop
  endfacet
  facet normal 1 0 0
    outer loop
      vertex 27 23.5 -4.2
      vertex 27 23 -6
      vertex 27 24.7634 -5.42705
    endloop
  endfacet
  facet normal 1 0 0
    outer loop
      vertex 27 22.7947 -3.97082
      vertex 27 23 -6
      vertex 27 23.0119 -4.09625
    endloop
  endfacet
  facet normal 1 0 0
    outer loop
      vertex 27 22.6082 -3.80296
      vertex 27 23 -6
      vertex 27 22.7947 -3.97082
    endloop
  endfacet
  facet normal 1 0 0
    outer loop
      vertex 27 22.4608 -3.6
      vertex 27 23 -6
      vertex 27 22.6082 -3.80296
    endloop
  endfacet
  facet normal 1 0 0
    outer loop
      vertex 27 14.5392 -3.6
      vertex 27 22.4608 -3.6
      vertex 27 22.3587 -3.37082
    endloop
  endfacet
  facet normal 1 0 0
    outer loop
      vertex 27 22.7947 -2.02918
      vertex 27 14.6934 -2.87457
      vertex 27 22.6082 -2.19704
    endloop
  endfacet
  facet normal 1 0 0
    outer loop
      vertex 27 22.6082 -2.19704
      vertex 27 14.6934 -2.87457
      vertex 27 22.4608 -2.4
    endloop
  endfacet
  facet normal 1 0 0
    outer loop
      vertex 27 22.4608 -2.4
      vertex 27 14.6934 -2.87457
      vertex 27 22.3587 -2.62918
    endloop
  endfacet
  facet normal 1 0 0
    outer loop
      vertex 27 22.3587 -2.62918
      vertex 27 14.6934 -2.87457
      vertex 27 22.3066 -2.87457
    endloop
  endfacet
  facet normal 1 0 0
    outer loop
      vertex 27 22.3066 -2.87457
      vertex 27 14.6934 -2.87457
      vertex 27 22.3066 -3.12543
    endloop
  endfacet
  facet normal 1 0 0
    outer loop
      vertex 27 14.6934 -2.87457
      vertex 27 18.5 13.3
      vertex 27 17.201 14.05
    endloop
  endfacet
  facet normal 1 0 0
    outer loop
      vertex 27 14.6934 -3.12543
      vertex 27 22.3066 -3.12543
      vertex 27 14.6934 -2.87457
    endloop
  endfacet
  facet normal 1 0 0
    outer loop
      vertex 27 22.3066 -3.12543
      vertex 27 14.6934 -3.12543
      vertex 27 22.3587 -3.37082
    endloop
  endfacet
  facet normal 1 0 0
    outer loop
      vertex 27 14.6413 -3.37082
      vertex 27 22.3587 -3.37082
      vertex 27 14.6934 -3.12543
    endloop
  endfacet
  facet normal 1 0 0
    outer loop
      vertex 27 14.5392 -3.6
      vertex 27 22.3587 -3.37082
      vertex 27 14.6413 -3.37082
    endloop
  endfacet
  facet normal 1 0 0
    outer loop
      vertex 27 22.4608 -3.6
      vertex 27 14.5392 -3.6
      vertex 27 23 -6
    endloop
  endfacet
  facet normal 1 -0 0
    outer loop
      vertex 27 14.3918 -3.80296
      vertex 27 23 -6
      vertex 27 14.5392 -3.6
    endloop
  endfacet
  facet normal 1 0 0
    outer loop
      vertex 27 13 -6
      vertex 27 14.3918 -3.80296
      vertex 27 14.2053 -3.97082
    endloop
  endfacet
  facet normal 1 0 0
    outer loop
      vertex 27 13 -6
      vertex 27 14.2053 -3.97082
      vertex 27 13.9881 -4.09625
    endloop
  endfacet
  facet normal 1 0 0
    outer loop
      vertex 27 13 -6
      vertex 27 13.9881 -4.09625
      vertex 27 13.7495 -4.17378
    endloop
  endfacet
  facet normal 1 0 0
    outer loop
      vertex 27 13 -6
      vertex 27 13.7495 -4.17378
      vertex 27 13.5 -4.2
    endloop
  endfacet
  facet normal 1 0 0
    outer loop
      vertex 27 13 -6
      vertex 27 13.5 -4.2
      vertex 27 13.2505 -4.17378
    endloop
  endfacet
  facet normal 1 0 0
    outer loop
      vertex 27 14.3918 -3.80296
      vertex 27 13 -6
      vertex 27 23 -6
    endloop
  endfacet
  facet normal 1 0 0
    outer loop
      vertex 27 13.0119 -4.09625
      vertex 27 13 -6
      vertex 27 13.2505 -4.17378
    endloop
  endfacet
  facet normal 1 0 0
    outer loop
      vertex 27 11.2366 -5.42705
      vertex 27 13.0119 -4.09625
      vertex 27 12.7947 -3.97082
    endloop
  endfacet
  facet normal 1 0 0
    outer loop
      vertex 27 11.2366 -5.42705
      vertex 27 12.7947 -3.97082
      vertex 27 12.6082 -3.80296
    endloop
  endfacet
  facet normal 1 0 0
    outer loop
      vertex 27 11.2366 -5.42705
      vertex 27 12.6082 -3.80296
      vertex 27 12.4608 -3.6
    endloop
  endfacet
  facet normal 1 0 0
    outer loop
      vertex 27 10.1468 -3.92705
      vertex 27 12.4608 -3.6
      vertex 27 12.3587 -3.37082
    endloop
  endfacet
  facet normal 1 0 0
    outer loop
      vertex 27 13.0119 -4.09625
      vertex 27 11.2366 -5.42705
      vertex 27 13 -6
    endloop
  endfacet
  facet normal 1 0 0
    outer loop
      vertex 27 10.1468 -3.92705
      vertex 27 12.3587 -3.37082
      vertex 27 12.3066 -3.12543
    endloop
  endfacet
  facet normal 1 0 0
    outer loop
      vertex 27 12.3587 -2.62918
      vertex 27 10.1468 -3.92705
      vertex 27 12.3066 -2.87457
    endloop
  endfacet
  facet normal 1 0 0
    outer loop
      vertex 27 12.3066 -2.87457
      vertex 27 10.1468 -3.92705
      vertex 27 12.3066 -3.12543
    endloop
  endfacet
  facet normal 1 0 0
    outer loop
      vertex 27 12.4608 -3.6
      vertex 27 10.1468 -3.92705
      vertex 27 11.2366 -5.42705
    endloop
  endfacet
  facet normal -0 0 1
    outer loop
      vertex 22.1642 14.4142 53
      vertex 27 13 53
      vertex 27 23 53
    endloop
  endfacet
  facet normal 0 0 1
    outer loop
      vertex 27 13 53
      vertex 22.1642 14.4142 53
      vertex 22.75 13 53
    endloop
  endfacet
  facet normal -0 0 1
    outer loop
      vertex 20 23 53
      vertex 22.1642 14.4142 53
      vertex 27 23 53
    endloop
  endfacet
  facet normal 0 0 1
    outer loop
      vertex 22.1642 14.4142 53
      vertex 20 23 53
      vertex 20.75 15 53
    endloop
  endfacet
  facet normal 0 0 1
    outer loop
      vertex 20.75 15 53
      vertex 20 23 53
      vertex 20 15 53
    endloop
  endfacet
  facet normal -0 0.309017 0.951057
    outer loop
      vertex 20 24.7634 52.4271
      vertex 27 23 53
      vertex 27 24.7634 52.4271
    endloop
  endfacet
  facet normal 0 0.309017 0.951057
    outer loop
      vertex 27 23 53
      vertex 20 24.7634 52.4271
      vertex 20 23 53
    endloop
  endfacet
  facet normal 0 0.809017 0.587785
    outer loop
      vertex 27 25.8532 50.9271
      vertex 20 24.7634 52.4271
      vertex 27 24.7634 52.4271
    endloop
  endfacet
  facet normal 0 0.809017 0.587785
    outer loop
      vertex 20 24.7634 52.4271
      vertex 27 25.8532 50.9271
      vertex 20 25.8532 50.9271
    endloop
  endfacet
  facet normal -1 0 0
    outer loop
      vertex 20 23.0119 -1.90374
      vertex 20 23.183 0
      vertex 20 23.2505 -1.82622
    endloop
  endfacet
  facet normal -1 0 0
    outer loop
      vertex 20 22.7947 -2.02918
      vertex 20 23.183 0
      vertex 20 23.0119 -1.90374
    endloop
  endfacet
  facet normal -1 0 0
    outer loop
      vertex 20 22.6082 -2.19704
      vertex 20 23.183 0
      vertex 20 22.7947 -2.02918
    endloop
  endfacet
  facet normal -1 0 0
    outer loop
      vertex 20 22.4608 -2.4
      vertex 20 23.183 0
      vertex 20 22.6082 -2.19704
    endloop
  endfacet
  facet normal -1 0 0
    outer loop
      vertex 20 14.5392 -2.4
      vertex 20 22.4608 -2.4
      vertex 20 22.3587 -2.62918
    endloop
  endfacet
  facet normal -1 0 0
    outer loop
      vertex 20 14.6934 -2.87457
      vertex 20 22.3066 -2.87457
      vertex 20 14.6934 -3.12543
    endloop
  endfacet
  facet normal -1 0 0
    outer loop
      vertex 20 22.3066 -2.87457
      vertex 20 14.6934 -2.87457
      vertex 20 22.3587 -2.62918
    endloop
  endfacet
  facet normal -1 0 0
    outer loop
      vertex 20 14.6413 -2.62918
      vertex 20 22.3587 -2.62918
      vertex 20 14.6934 -2.87457
    endloop
  endfacet
  facet normal -1 0 0
    outer loop
      vertex 20 14.5392 -2.4
      vertex 20 22.3587 -2.62918
      vertex 20 14.6413 -2.62918
    endloop
  endfacet
  facet normal -1 0 0
    outer loop
      vertex 20 22.4608 -2.4
      vertex 20 14.5392 -2.4
      vertex 20 23.183 0
    endloop
  endfacet
  facet normal -1 0 0
    outer loop
      vertex 20 14.3918 -2.19704
      vertex 20 23.183 0
      vertex 20 14.5392 -2.4
    endloop
  endfacet
  facet normal -1 0 0
    outer loop
      vertex 20 14.2053 -2.02918
      vertex 20 23.183 0
      vertex 20 14.3918 -2.19704
    endloop
  endfacet
  facet normal -1 0 0
    outer loop
      vertex 20 13.9881 -1.90374
      vertex 20 23.183 0
      vertex 20 14.2053 -2.02918
    endloop
  endfacet
  facet normal -1 0 0
    outer loop
      vertex 20 13.7495 -1.82622
      vertex 20 23.183 0
      vertex 20 13.9881 -1.90374
    endloop
  endfacet
  facet normal -1 0 0
    outer loop
      vertex 20 10.1468 0
      vertex 20 13.7495 -1.82622
      vertex 20 13.5 -1.8
    endloop
  endfacet
  facet normal -1 0 0
    outer loop
      vertex 20 10.1468 0
      vertex 20 13.5 -1.8
      vertex 20 13.2505 -1.82622
    endloop
  endfacet
  facet normal -1 -0 0
    outer loop
      vertex 20 12.3066 -3.12543
      vertex 20 10.1468 -3.92705
      vertex 20 12.3066 -2.87457
    endloop
  endfacet
  facet normal -1 -0 0
    outer loop
      vertex 20 12.3066 -2.87457
      vertex 20 10.1468 -3.92705
      vertex 20 12.3587 -2.62918
    endloop
  endfacet
  facet normal -1 0 0
    outer loop
      vertex 20 10.1468 0
      vertex 20 12.3587 -2.62918
      vertex 20 10.1468 -3.92705
    endloop
  endfacet
  facet normal -1 0 0
    outer loop
      vertex 20 12.3587 -2.62918
      vertex 20 10.1468 0
      vertex 20 12.4608 -2.4
    endloop
  endfacet
  facet normal -1 0 0
    outer loop
      vertex 20 12.4608 -2.4
      vertex 20 10.1468 0
      vertex 20 12.6082 -2.19704
    endloop
  endfacet
  facet normal -1 0 0
    outer loop
      vertex 20 13.7495 -1.82622
      vertex 20 10.1468 0
      vertex 20 23.183 0
    endloop
  endfacet
  facet normal -1 0 0
    outer loop
      vertex 20 13.0119 -1.90374
      vertex 20 10.1468 0
      vertex 20 13.2505 -1.82622
    endloop
  endfacet
  facet normal -1 0 0
    outer loop
      vertex 20 12.7947 -2.02918
      vertex 20 10.1468 0
      vertex 20 13.0119 -1.90374
    endloop
  endfacet
  facet normal -1 0 0
    outer loop
      vertex 20 12.6082 -2.19704
      vertex 20 10.1468 0
      vertex 20 12.7947 -2.02918
    endloop
  endfacet
  facet normal -1 0 0
    outer loop
      vertex 20 24.3918 -3.80296
      vertex 20 25.8532 -3.92705
      vertex 20 24.7634 -5.42705
    endloop
  endfacet
  facet normal -1 0 0
    outer loop
      vertex 20 24.6413 -2.62918
      vertex 20 25.8532 -3.92705
      vertex 20 24.6934 -2.87457
    endloop
  endfacet
  facet normal -1 0 0
    outer loop
      vertex 20 25.8532 -3.92705
      vertex 20 24.6934 -3.12543
      vertex 20 24.6934 -2.87457
    endloop
  endfacet
  facet normal -1 0 0
    outer loop
      vertex 20 25.8532 -3.92705
      vertex 20 24.6413 -3.37082
      vertex 20 24.6934 -3.12543
    endloop
  endfacet
  facet normal -1 0 0
    outer loop
      vertex 20 25.8532 -3.92705
      vertex 20 24.5392 -3.6
      vertex 20 24.6413 -3.37082
    endloop
  endfacet
  facet normal -1 0 0
    outer loop
      vertex 20 25.8532 -3.92705
      vertex 20 24.3918 -3.80296
      vertex 20 24.5392 -3.6
    endloop
  endfacet
  facet normal -1 0 0
    outer loop
      vertex 20 24.7634 -5.42705
      vertex 20 24.2053 -3.97082
      vertex 20 24.3918 -3.80296
    endloop
  endfacet
  facet normal -1 0 0
    outer loop
      vertex 20 24.7634 -5.42705
      vertex 20 23.9881 -4.09625
      vertex 20 24.2053 -3.97082
    endloop
  endfacet
  facet normal -1 0 0
    outer loop
      vertex 20 24.7634 -5.42705
      vertex 20 23.7495 -4.17378
      vertex 20 23.9881 -4.09625
    endloop
  endfacet
  facet normal -1 0 0
    outer loop
      vertex 20 24.7634 -5.42705
      vertex 20 23.5 -4.2
      vertex 20 23.7495 -4.17378
    endloop
  endfacet
  facet normal -1 0 0
    outer loop
      vertex 20 23 -6
      vertex 20 23.5 -4.2
      vertex 20 24.7634 -5.42705
    endloop
  endfacet
  facet normal -1 -0 0
    outer loop
      vertex 20 23.5 -4.2
      vertex 20 23 -6
      vertex 20 23.2505 -4.17378
    endloop
  endfacet
  facet normal -1 -0 0
    outer loop
      vertex 20 23.2505 -4.17378
      vertex 20 23 -6
      vertex 20 23.0119 -4.09625
    endloop
  endfacet
  facet normal -1 0 0
    outer loop
      vertex 20 23 -6
      vertex 20 22.7947 -3.97082
      vertex 20 23.0119 -4.09625
    endloop
  endfacet
  facet normal -1 0 0
    outer loop
      vertex 20 23 -6
      vertex 20 22.6082 -3.80296
      vertex 20 22.7947 -3.97082
    endloop
  endfacet
  facet normal -1 0 0
    outer loop
      vertex 20 23 -6
      vertex 20 22.4608 -3.6
      vertex 20 22.6082 -3.80296
    endloop
  endfacet
  facet normal -1 0 0
    outer loop
      vertex 20 14.5392 -3.6
      vertex 20 22.4608 -3.6
      vertex 20 23 -6
    endloop
  endfacet
  facet normal -1 0 0
    outer loop
      vertex 20 22.3066 -3.12543
      vertex 20 14.6934 -3.12543
      vertex 20 22.3066 -2.87457
    endloop
  endfacet
  facet normal -1 0 0
    outer loop
      vertex 20 22.3587 -3.37082
      vertex 20 14.6934 -3.12543
      vertex 20 22.3066 -3.12543
    endloop
  endfacet
  facet normal -1 0 0
    outer loop
      vertex 20 22.4608 -3.6
      vertex 20 14.5392 -3.6
      vertex 20 22.3587 -3.37082
    endloop
  endfacet
  facet normal -1 0 0
    outer loop
      vertex 20 22.3587 -3.37082
      vertex 20 14.6413 -3.37082
      vertex 20 14.6934 -3.12543
    endloop
  endfacet
  facet normal -1 -0 0
    outer loop
      vertex 20 22.3587 -3.37082
      vertex 20 14.5392 -3.6
      vertex 20 14.6413 -3.37082
    endloop
  endfacet
  facet normal -1 0 0
    outer loop
      vertex 20 23 -6
      vertex 20 14.3918 -3.80296
      vertex 20 14.5392 -3.6
    endloop
  endfacet
  facet normal -1 0 0
    outer loop
      vertex 20 13 -6
      vertex 20 14.3918 -3.80296
      vertex 20 23 -6
    endloop
  endfacet
  facet normal -1 0 0
    outer loop
      vertex 20 14.3918 -3.80296
      vertex 20 13 -6
      vertex 20 14.2053 -3.97082
    endloop
  endfacet
  facet normal -1 0 0
    outer loop
      vertex 20 14.2053 -3.97082
      vertex 20 13 -6
      vertex 20 13.9881 -4.09625
    endloop
  endfacet
  facet normal -1 0 0
    outer loop
      vertex 20 13.9881 -4.09625
      vertex 20 13 -6
      vertex 20 13.7495 -4.17378
    endloop
  endfacet
  facet normal -1 0 0
    outer loop
      vertex 20 13.7495 -4.17378
      vertex 20 13 -6
      vertex 20 13.5 -4.2
    endloop
  endfacet
  facet normal -1 -0 0
    outer loop
      vertex 20 13.5 -4.2
      vertex 20 13 -6
      vertex 20 13.2505 -4.17378
    endloop
  endfacet
  facet normal -1 0 0
    outer loop
      vertex 20 13 -6
      vertex 20 13.0119 -4.09625
      vertex 20 13.2505 -4.17378
    endloop
  endfacet
  facet normal -1 0 0
    outer loop
      vertex 20 11.2366 -5.42705
      vertex 20 13.0119 -4.09625
      vertex 20 13 -6
    endloop
  endfacet
  facet normal -1 -0 0
    outer loop
      vertex 20 13.0119 -4.09625
      vertex 20 11.2366 -5.42705
      vertex 20 12.7947 -3.97082
    endloop
  endfacet
  facet normal -1 -0 0
    outer loop
      vertex 20 12.7947 -3.97082
      vertex 20 11.2366 -5.42705
      vertex 20 12.6082 -3.80296
    endloop
  endfacet
  facet normal -1 -0 0
    outer loop
      vertex 20 12.6082 -3.80296
      vertex 20 11.2366 -5.42705
      vertex 20 12.4608 -3.6
    endloop
  endfacet
  facet normal -1 -0 0
    outer loop
      vertex 20 12.3587 -3.37082
      vertex 20 10.1468 -3.92705
      vertex 20 12.3066 -3.12543
    endloop
  endfacet
  facet normal -1 -0 0
    outer loop
      vertex 20 12.4608 -3.6
      vertex 20 10.1468 -3.92705
      vertex 20 12.3587 -3.37082
    endloop
  endfacet
  facet normal -1 0 0
    outer loop
      vertex 20 10.1468 -3.92705
      vertex 20 12.4608 -3.6
      vertex 20 11.2366 -5.42705
    endloop
  endfacet
  facet normal -1 0 0
    outer loop
      vertex 20 24.5392 -2.4
      vertex 20 25.8532 -3.92705
      vertex 20 24.6413 -2.62918
    endloop
  endfacet
  facet normal -1 0 0
    outer loop
      vertex 20 23.183 0
      vertex 20 25.8532 -3.92705
      vertex 20 24.5392 -2.4
    endloop
  endfacet
  facet normal -1 0 0
    outer loop
      vertex 20 25.8532 -3.92705
      vertex 20 23.183 45.5656
      vertex 20 25.8532 50.9271
    endloop
  endfacet
  facet normal -1 0 0
    outer loop
      vertex 20 23.183 0
      vertex 20 24.5392 -2.4
      vertex 20 24.3918 -2.19704
    endloop
  endfacet
  facet normal -1 0 0
    outer loop
      vertex 20 23.183 0
      vertex 20 24.3918 -2.19704
      vertex 20 24.2053 -2.02918
    endloop
  endfacet
  facet normal -1 0 0
    outer loop
      vertex 20 23.183 0
      vertex 20 24.2053 -2.02918
      vertex 20 23.9881 -1.90374
    endloop
  endfacet
  facet normal -1 0 0
    outer loop
      vertex 20 23.183 0
      vertex 20 23.9881 -1.90374
      vertex 20 23.7495 -1.82622
    endloop
  endfacet
  facet normal -1 0 0
    outer loop
      vertex 20 23.183 0
      vertex 20 23.7495 -1.82622
      vertex 20 23.5 -1.8
    endloop
  endfacet
  facet normal -1 0 0
    outer loop
      vertex 20 23.183 0
      vertex 20 23.5 -1.8
      vertex 20 23.2505 -1.82622
    endloop
  endfacet
  facet normal -1 0 0
    outer loop
      vertex 20 25.8532 -3.92705
      vertex 20 23.183 0
      vertex 20 23.183 45.5656
    endloop
  endfacet
  facet normal -1 0 0
    outer loop
      vertex 20 23.0664 46.9729
      vertex 20 25.8532 50.9271
      vertex 20 23.183 45.5656
    endloop
  endfacet
  facet normal -1 0 0
    outer loop
      vertex 20 22.273 48.7817
      vertex 20 25.8532 50.9271
      vertex 20 23.0664 46.9729
    endloop
  endfacet
  facet normal -1 -0 0
    outer loop
      vertex 20 25.8532 50.9271
      vertex 20 22.273 48.7817
      vertex 20 24.7634 52.4271
    endloop
  endfacet
  facet normal -1 -0 0
    outer loop
      vertex 20 24.7634 52.4271
      vertex 20 22.273 48.7817
      vertex 20 23 53
    endloop
  endfacet
  facet normal -1 0 0
    outer loop
      vertex 20 20.9353 50.2348
      vertex 20 23 53
      vertex 20 22.273 48.7817
    endloop
  endfacet
  facet normal -1 0 0
    outer loop
      vertex 20 19.1982 51.1749
      vertex 20 23 53
      vertex 20 20.9353 50.2348
    endloop
  endfacet
  facet normal -1 0 0
    outer loop
      vertex 20 17.6514 51.433
      vertex 20 23 53
      vertex 20 19.1982 51.1749
    endloop
  endfacet
  facet normal -1 0 0
    outer loop
      vertex 20 15 53
      vertex 20 17.6514 51.433
      vertex 20 15 51.433
    endloop
  endfacet
  facet normal -1 0 0
    outer loop
      vertex 20 17.6514 51.433
      vertex 20 15 53
      vertex 20 23 53
    endloop
  endfacet
  facet normal -1 0 0
    outer loop
      vertex 20 18.5 13.3
      vertex 20 20.3922 11.8056
      vertex 20 18.5 11.25
    endloop
  endfacet
  facet normal -1 0 0
    outer loop
      vertex 20 20.3922 11.8056
      vertex 20 18.5 13.3
      vertex 20 19.799 14.05
    endloop
  endfacet
  facet normal -1 0 0
    outer loop
      vertex 20 16.6078 11.8056
      vertex 20 18.5 13.3
      vertex 20 18.5 11.25
    endloop
  endfacet
  facet normal -1 0 0
    outer loop
      vertex 20 15.3163 13.296
      vertex 20 17.201 14.05
      vertex 20 16.6078 11.8056
    endloop
  endfacet
  facet normal -1 -0 0
    outer loop
      vertex 20 18.5 13.3
      vertex 20 16.6078 11.8056
      vertex 20 17.201 14.05
    endloop
  endfacet
  facet normal -1 0 0
    outer loop
      vertex 20 19.799 14.05
      vertex 20 21.9644 15.2481
      vertex 20 21.6837 13.296
    endloop
  endfacet
  facet normal -1 0 0
    outer loop
      vertex 20 19.799 14.05
      vertex 20 21.6837 13.296
      vertex 20 20.3922 11.8056
    endloop
  endfacet
  facet normal -1 -0 0
    outer loop
      vertex 20 21.9644 15.2481
      vertex 20 19.799 14.05
      vertex 20 19.799 15.55
    endloop
  endfacet
  facet normal -1 0 0
    outer loop
      vertex 20 21.9644 15.2481
      vertex 20 19.799 15.55
      vertex 20 21.1451 17.042
    endloop
  endfacet
  facet normal -1 0 0
    outer loop
      vertex 20 19.799 15.55
      vertex 20 19.4861 18.1082
      vertex 20 21.1451 17.042
    endloop
  endfacet
  facet normal -1 0 0
    outer loop
      vertex 20 18.5 16.3
      vertex 20 19.4861 18.1082
      vertex 20 19.799 15.55
    endloop
  endfacet
  facet normal -1 0 0
    outer loop
      vertex 20 18.5 16.3
      vertex 20 17.5139 18.1082
      vertex 20 19.4861 18.1082
    endloop
  endfacet
  facet normal -1 0 0
    outer loop
      vertex 20 17.201 15.55
      vertex 20 17.5139 18.1082
      vertex 20 18.5 16.3
    endloop
  endfacet
  facet normal -1 0 0
    outer loop
      vertex 20 15.0356 15.2481
      vertex 20 17.201 14.05
      vertex 20 15.3163 13.296
    endloop
  endfacet
  facet normal -1 0 0
    outer loop
      vertex 20 17.201 15.55
      vertex 20 15.8549 17.042
      vertex 20 17.5139 18.1082
    endloop
  endfacet
  facet normal -1 0 0
    outer loop
      vertex 20 17.201 14.05
      vertex 20 15.0356 15.2481
      vertex 20 17.201 15.55
    endloop
  endfacet
  facet normal -1 -0 0
    outer loop
      vertex 20 17.201 15.55
      vertex 20 15.0356 15.2481
      vertex 20 15.8549 17.042
    endloop
  endfacet
  facet normal -1 0 0
    outer loop
      vertex 20 18.5 44.1
      vertex 20 20.3922 42.8056
      vertex 20 18.5 42.25
    endloop
  endfacet
  facet normal -1 0 0
    outer loop
      vertex 20 20.3922 42.8056
      vertex 20 18.5 44.1
      vertex 20 19.799 44.85
    endloop
  endfacet
  facet normal -1 0 0
    outer loop
      vertex 20 16.6078 42.8056
      vertex 20 18.5 44.1
      vertex 20 18.5 42.25
    endloop
  endfacet
  facet normal -1 0 0
    outer loop
      vertex 20 15.3163 44.296
      vertex 20 17.201 44.85
      vertex 20 16.6078 42.8056
    endloop
  endfacet
  facet normal -1 -0 0
    outer loop
      vertex 20 18.5 44.1
      vertex 20 16.6078 42.8056
      vertex 20 17.201 44.85
    endloop
  endfacet
  facet normal -1 0 0
    outer loop
      vertex 20 19.799 44.85
      vertex 20 21.9644 46.2481
      vertex 20 21.6837 44.296
    endloop
  endfacet
  facet normal -1 0 0
    outer loop
      vertex 20 19.799 44.85
      vertex 20 21.6837 44.296
      vertex 20 20.3922 42.8056
    endloop
  endfacet
  facet normal -1 -0 0
    outer loop
      vertex 20 21.9644 46.2481
      vertex 20 19.799 44.85
      vertex 20 19.799 46.35
    endloop
  endfacet
  facet normal -1 0 0
    outer loop
      vertex 20 21.9644 46.2481
      vertex 20 19.799 46.35
      vertex 20 21.1451 48.042
    endloop
  endfacet
  facet normal -1 0 0
    outer loop
      vertex 20 19.799 46.35
      vertex 20 19.4861 49.1082
      vertex 20 21.1451 48.042
    endloop
  endfacet
  facet normal -1 0 0
    outer loop
      vertex 20 18.5 47.1
      vertex 20 19.4861 49.1082
      vertex 20 19.799 46.35
    endloop
  endfacet
  facet normal -1 0 0
    outer loop
      vertex 20 18.5 47.1
      vertex 20 17.5139 49.1082
      vertex 20 19.4861 49.1082
    endloop
  endfacet
  facet normal -1 0 0
    outer loop
      vertex 20 17.201 46.35
      vertex 20 17.5139 49.1082
      vertex 20 18.5 47.1
    endloop
  endfacet
  facet normal -1 0 0
    outer loop
      vertex 20 15.0356 46.2481
      vertex 20 17.201 44.85
      vertex 20 15.3163 44.296
    endloop
  endfacet
  facet normal -1 0 0
    outer loop
      vertex 20 17.201 46.35
      vertex 20 15.8549 48.042
      vertex 20 17.5139 49.1082
    endloop
  endfacet
  facet normal -1 0 0
    outer loop
      vertex 20 17.201 44.85
      vertex 20 15.0356 46.2481
      vertex 20 17.201 46.35
    endloop
  endfacet
  facet normal -1 -0 0
    outer loop
      vertex 20 17.201 46.35
      vertex 20 15.0356 46.2481
      vertex 20 15.8549 48.042
    endloop
  endfacet
  facet normal 1.29571e-007 0.309017 -0.951057
    outer loop
      vertex 27 23 -6
      vertex 20 23 -6
      vertex 27 24.7634 -5.42705
    endloop
  endfacet
  facet normal 0 -0.809017 -0.587785
    outer loop
      vertex 20 11.2366 -5.42705
      vertex 27 10.1468 -3.92705
      vertex 20 10.1468 -3.92705
    endloop
  endfacet
  facet normal 0 -0.809017 -0.587785
    outer loop
      vertex 27 10.1468 -3.92705
      vertex 20 11.2366 -5.42705
      vertex 27 11.2366 -5.42705
    endloop
  endfacet
  facet normal -0 -0.309017 -0.951056
    outer loop
      vertex 27 11.2366 -5.42705
      vertex 20 11.2366 -5.42705
      vertex 20 13 -6
    endloop
  endfacet
  facet normal 0 0.809017 -0.587785
    outer loop
      vertex 27 24.7634 -5.42705
      vertex 20 25.8532 -3.92705
      vertex 27 25.8532 -3.92705
    endloop
  endfacet
  facet normal 0 0.809017 -0.587785
    outer loop
      vertex 20 25.8532 -3.92705
      vertex 27 24.7634 -5.42705
      vertex 20 24.7634 -5.42705
    endloop
  endfacet
  facet normal 0 0.309017 -0.951056
    outer loop
      vertex 27 24.7634 -5.42705
      vertex 20 23 -6
      vertex 20 24.7634 -5.42705
    endloop
  endfacet
  facet normal 0 -0.5 0.866025
    outer loop
      vertex 20 19.799 14.05
      vertex 27 18.5 13.3
      vertex 27 19.799 14.05
    endloop
  endfacet
  facet normal 0 -0.5 0.866025
    outer loop
      vertex 27 18.5 13.3
      vertex 20 19.799 14.05
      vertex 20 18.5 13.3
    endloop
  endfacet
  facet normal 0 0.5 -0.866025
    outer loop
      vertex 20 17.201 15.55
      vertex 27 18.5 16.3
      vertex 27 17.201 15.55
    endloop
  endfacet
  facet normal 0 0.5 -0.866025
    outer loop
      vertex 27 18.5 16.3
      vertex 20 17.201 15.55
      vertex 20 18.5 16.3
    endloop
  endfacet
  facet normal 0 1 -0
    outer loop
      vertex 27 17.201 14.05
      vertex 20 17.201 15.55
      vertex 27 17.201 15.55
    endloop
  endfacet
  facet normal 0 1 0
    outer loop
      vertex 20 17.201 15.55
      vertex 27 17.201 14.05
      vertex 20 17.201 14.05
    endloop
  endfacet
  facet normal 0 -0.5 -0.866025
    outer loop
      vertex 20 18.5 16.3
      vertex 27 19.799 15.55
      vertex 27 18.5 16.3
    endloop
  endfacet
  facet normal -0 -0.5 -0.866025
    outer loop
      vertex 27 19.799 15.55
      vertex 20 18.5 16.3
      vertex 20 19.799 15.55
    endloop
  endfacet
  facet normal 0 -1 0
    outer loop
      vertex 20 19.799 14.05
      vertex 27 19.799 15.55
      vertex 20 19.799 15.55
    endloop
  endfacet
  facet normal 0 -1 -0
    outer loop
      vertex 27 19.799 15.55
      vertex 20 19.799 14.05
      vertex 27 19.799 14.05
    endloop
  endfacet
  facet normal -0 0.5 0.866025
    outer loop
      vertex 20 18.5 13.3
      vertex 27 17.201 14.05
      vertex 27 18.5 13.3
    endloop
  endfacet
  facet normal 0 0.5 0.866025
    outer loop
      vertex 27 17.201 14.05
      vertex 20 18.5 13.3
      vertex 20 17.201 14.05
    endloop
  endfacet
  facet normal 0 -0.5 0.866025
    outer loop
      vertex 20 19.799 44.85
      vertex 27 18.5 44.1
      vertex 27 19.799 44.85
    endloop
  endfacet
  facet normal 0 -0.5 0.866025
    outer loop
      vertex 27 18.5 44.1
      vertex 20 19.799 44.85
      vertex 20 18.5 44.1
    endloop
  endfacet
  facet normal 0 0.5 -0.866025
    outer loop
      vertex 20 17.201 46.35
      vertex 27 18.5 47.1
      vertex 27 17.201 46.35
    endloop
  endfacet
  facet normal 0 0.5 -0.866025
    outer loop
      vertex 27 18.5 47.1
      vertex 20 17.201 46.35
      vertex 20 18.5 47.1
    endloop
  endfacet
  facet normal 0 1 -0
    outer loop
      vertex 27 17.201 44.85
      vertex 20 17.201 46.35
      vertex 27 17.201 46.35
    endloop
  endfacet
  facet normal 0 1 0
    outer loop
      vertex 20 17.201 46.35
      vertex 27 17.201 44.85
      vertex 20 17.201 44.85
    endloop
  endfacet
  facet normal 0 -0.5 -0.866025
    outer loop
      vertex 20 18.5 47.1
      vertex 27 19.799 46.35
      vertex 27 18.5 47.1
    endloop
  endfacet
  facet normal -0 -0.5 -0.866025
    outer loop
      vertex 27 19.799 46.35
      vertex 20 18.5 47.1
      vertex 20 19.799 46.35
    endloop
  endfacet
  facet normal 0 -1 0
    outer loop
      vertex 20 19.799 44.85
      vertex 27 19.799 46.35
      vertex 20 19.799 46.35
    endloop
  endfacet
  facet normal 0 -1 -0
    outer loop
      vertex 27 19.799 46.35
      vertex 20 19.799 44.85
      vertex 27 19.799 44.85
    endloop
  endfacet
  facet normal -0 0.5 0.866025
    outer loop
      vertex 20 18.5 44.1
      vertex 27 17.201 44.85
      vertex 27 18.5 44.1
    endloop
  endfacet
  facet normal 0 0.5 0.866025
    outer loop
      vertex 27 17.201 44.85
      vertex 20 18.5 44.1
      vertex 20 17.201 44.85
    endloop
  endfacet
  facet normal 0 -0.10453 0.994522
    outer loop
      vertex 20 23.7495 -4.17378
      vertex 27 23.5 -4.2
      vertex 27 23.7495 -4.17378
    endloop
  endfacet
  facet normal 0 -0.10453 0.994522
    outer loop
      vertex 27 23.5 -4.2
      vertex 20 23.7495 -4.17378
      vertex 20 23.5 -4.2
    endloop
  endfacet
  facet normal 0 0.104529 -0.994522
    outer loop
      vertex 20 23.2505 -1.82622
      vertex 27 23.5 -1.8
      vertex 27 23.2505 -1.82622
    endloop
  endfacet
  facet normal 0 0.104529 -0.994522
    outer loop
      vertex 27 23.5 -1.8
      vertex 20 23.2505 -1.82622
      vertex 20 23.5 -1.8
    endloop
  endfacet
  facet normal 0 -0.669128 0.743147
    outer loop
      vertex 20 24.3918 -3.80296
      vertex 27 24.2053 -3.97082
      vertex 27 24.3918 -3.80296
    endloop
  endfacet
  facet normal 0 -0.669128 0.743147
    outer loop
      vertex 27 24.2053 -3.97082
      vertex 20 24.3918 -3.80296
      vertex 20 24.2053 -3.97082
    endloop
  endfacet
  facet normal 0 -1 0
    outer loop
      vertex 20 24.6934 -3.12543
      vertex 27 24.6934 -2.87457
      vertex 20 24.6934 -2.87457
    endloop
  endfacet
  facet normal 0 -1 -0
    outer loop
      vertex 27 24.6934 -2.87457
      vertex 20 24.6934 -3.12543
      vertex 27 24.6934 -3.12543
    endloop
  endfacet
  facet normal 0 -0.978148 0.207911
    outer loop
      vertex 20 24.6413 -3.37082
      vertex 27 24.6934 -3.12543
      vertex 20 24.6934 -3.12543
    endloop
  endfacet
  facet normal 0 -0.978148 0.207911
    outer loop
      vertex 27 24.6934 -3.12543
      vertex 20 24.6413 -3.37082
      vertex 27 24.6413 -3.37082
    endloop
  endfacet
  facet normal 0 -0.809017 -0.587786
    outer loop
      vertex 20 24.5392 -2.4
      vertex 27 24.3918 -2.19704
      vertex 20 24.3918 -2.19704
    endloop
  endfacet
  facet normal 0 -0.809017 -0.587786
    outer loop
      vertex 27 24.3918 -2.19704
      vertex 20 24.5392 -2.4
      vertex 27 24.5392 -2.4
    endloop
  endfacet
  facet normal 0 -0.10453 -0.994522
    outer loop
      vertex 20 23.5 -1.8
      vertex 27 23.7495 -1.82622
      vertex 27 23.5 -1.8
    endloop
  endfacet
  facet normal -0 -0.10453 -0.994522
    outer loop
      vertex 27 23.7495 -1.82622
      vertex 20 23.5 -1.8
      vertex 20 23.7495 -1.82622
    endloop
  endfacet
  facet normal 0 0.913542 0.406744
    outer loop
      vertex 27 22.4608 -3.6
      vertex 20 22.3587 -3.37082
      vertex 27 22.3587 -3.37082
    endloop
  endfacet
  facet normal 0 0.913542 0.406744
    outer loop
      vertex 20 22.3587 -3.37082
      vertex 27 22.4608 -3.6
      vertex 20 22.4608 -3.6
    endloop
  endfacet
  facet normal 0 -0.309016 0.951057
    outer loop
      vertex 20 23.9881 -4.09625
      vertex 27 23.7495 -4.17378
      vertex 27 23.9881 -4.09625
    endloop
  endfacet
  facet normal 0 -0.309016 0.951057
    outer loop
      vertex 27 23.7495 -4.17378
      vertex 20 23.9881 -4.09625
      vertex 20 23.7495 -4.17378
    endloop
  endfacet
  facet normal 0 -0.500002 0.866024
    outer loop
      vertex 20 24.2053 -3.97082
      vertex 27 23.9881 -4.09625
      vertex 27 24.2053 -3.97082
    endloop
  endfacet
  facet normal 0 -0.500002 0.866024
    outer loop
      vertex 27 23.9881 -4.09625
      vertex 20 24.2053 -3.97082
      vertex 20 23.9881 -4.09625
    endloop
  endfacet
  facet normal 0 -0.978148 -0.207911
    outer loop
      vertex 20 24.6934 -2.87457
      vertex 27 24.6413 -2.62918
      vertex 20 24.6413 -2.62918
    endloop
  endfacet
  facet normal 0 -0.978148 -0.207911
    outer loop
      vertex 27 24.6413 -2.62918
      vertex 20 24.6934 -2.87457
      vertex 27 24.6934 -2.87457
    endloop
  endfacet
  facet normal 0 -0.913545 0.406737
    outer loop
      vertex 20 24.5392 -3.6
      vertex 27 24.6413 -3.37082
      vertex 20 24.6413 -3.37082
    endloop
  endfacet
  facet normal 0 -0.913545 0.406737
    outer loop
      vertex 27 24.6413 -3.37082
      vertex 20 24.5392 -3.6
      vertex 27 24.5392 -3.6
    endloop
  endfacet
  facet normal 0 -0.309016 -0.951057
    outer loop
      vertex 20 23.7495 -1.82622
      vertex 27 23.9881 -1.90374
      vertex 27 23.7495 -1.82622
    endloop
  endfacet
  facet normal -0 -0.309016 -0.951057
    outer loop
      vertex 27 23.9881 -1.90374
      vertex 20 23.7495 -1.82622
      vertex 20 23.9881 -1.90374
    endloop
  endfacet
  facet normal 0 -0.669128 -0.743147
    outer loop
      vertex 20 24.2053 -2.02918
      vertex 27 24.3918 -2.19704
      vertex 27 24.2053 -2.02918
    endloop
  endfacet
  facet normal -0 -0.669128 -0.743147
    outer loop
      vertex 27 24.3918 -2.19704
      vertex 20 24.2053 -2.02918
      vertex 20 24.3918 -2.19704
    endloop
  endfacet
  facet normal 0 -0.913545 -0.406737
    outer loop
      vertex 20 24.6413 -2.62918
      vertex 27 24.5392 -2.4
      vertex 20 24.5392 -2.4
    endloop
  endfacet
  facet normal 0 -0.913545 -0.406737
    outer loop
      vertex 27 24.5392 -2.4
      vertex 20 24.6413 -2.62918
      vertex 27 24.6413 -2.62918
    endloop
  endfacet
  facet normal 0 -0.500002 -0.866024
    outer loop
      vertex 20 23.9881 -1.90374
      vertex 27 24.2053 -2.02918
      vertex 27 23.9881 -1.90374
    endloop
  endfacet
  facet normal -0 -0.500002 -0.866024
    outer loop
      vertex 27 24.2053 -2.02918
      vertex 20 23.9881 -1.90374
      vertex 20 24.2053 -2.02918
    endloop
  endfacet
  facet normal -0 0.309016 0.951057
    outer loop
      vertex 20 23.2505 -4.17378
      vertex 27 23.0119 -4.09625
      vertex 27 23.2505 -4.17378
    endloop
  endfacet
  facet normal 0 0.309016 0.951057
    outer loop
      vertex 27 23.0119 -4.09625
      vertex 20 23.2505 -4.17378
      vertex 20 23.0119 -4.09625
    endloop
  endfacet
  facet normal 0 0.913542 -0.406744
    outer loop
      vertex 27 22.3587 -2.62918
      vertex 20 22.4608 -2.4
      vertex 27 22.4608 -2.4
    endloop
  endfacet
  facet normal 0 0.913542 -0.406744
    outer loop
      vertex 20 22.4608 -2.4
      vertex 27 22.3587 -2.62918
      vertex 20 22.3587 -2.62918
    endloop
  endfacet
  facet normal -0 0.669132 0.743144
    outer loop
      vertex 20 22.7947 -3.97082
      vertex 27 22.6082 -3.80296
      vertex 27 22.7947 -3.97082
    endloop
  endfacet
  facet normal 0 0.669132 0.743144
    outer loop
      vertex 27 22.6082 -3.80296
      vertex 20 22.7947 -3.97082
      vertex 20 22.6082 -3.80296
    endloop
  endfacet
  facet normal -0 0.104529 0.994522
    outer loop
      vertex 20 23.5 -4.2
      vertex 27 23.2505 -4.17378
      vertex 27 23.5 -4.2
    endloop
  endfacet
  facet normal 0 0.104529 0.994522
    outer loop
      vertex 27 23.2505 -4.17378
      vertex 20 23.5 -4.2
      vertex 20 23.2505 -4.17378
    endloop
  endfacet
  facet normal 0 -0.809017 0.587786
    outer loop
      vertex 20 24.3918 -3.80296
      vertex 27 24.5392 -3.6
      vertex 20 24.5392 -3.6
    endloop
  endfacet
  facet normal 0 -0.809017 0.587786
    outer loop
      vertex 27 24.5392 -3.6
      vertex 20 24.3918 -3.80296
      vertex 27 24.3918 -3.80296
    endloop
  endfacet
  facet normal 0 0.500002 -0.866024
    outer loop
      vertex 20 22.7947 -2.02918
      vertex 27 23.0119 -1.90374
      vertex 27 22.7947 -2.02918
    endloop
  endfacet
  facet normal 0 0.500002 -0.866024
    outer loop
      vertex 27 23.0119 -1.90374
      vertex 20 22.7947 -2.02918
      vertex 20 23.0119 -1.90374
    endloop
  endfacet
  facet normal 0 0.309016 -0.951057
    outer loop
      vertex 20 23.0119 -1.90374
      vertex 27 23.2505 -1.82622
      vertex 27 23.0119 -1.90374
    endloop
  endfacet
  facet normal 0 0.309016 -0.951057
    outer loop
      vertex 27 23.2505 -1.82622
      vertex 20 23.0119 -1.90374
      vertex 20 23.2505 -1.82622
    endloop
  endfacet
  facet normal 0 0.809017 -0.587786
    outer loop
      vertex 27 22.4608 -2.4
      vertex 20 22.6082 -2.19704
      vertex 27 22.6082 -2.19704
    endloop
  endfacet
  facet normal 0 0.809017 -0.587786
    outer loop
      vertex 20 22.6082 -2.19704
      vertex 27 22.4608 -2.4
      vertex 20 22.4608 -2.4
    endloop
  endfacet
  facet normal 0 0.809017 0.587786
    outer loop
      vertex 27 22.6082 -3.80296
      vertex 20 22.4608 -3.6
      vertex 27 22.4608 -3.6
    endloop
  endfacet
  facet normal 0 0.809017 0.587786
    outer loop
      vertex 20 22.4608 -3.6
      vertex 27 22.6082 -3.80296
      vertex 20 22.6082 -3.80296
    endloop
  endfacet
  facet normal 0 0.978148 0.207911
    outer loop
      vertex 27 22.3587 -3.37082
      vertex 20 22.3066 -3.12543
      vertex 27 22.3066 -3.12543
    endloop
  endfacet
  facet normal 0 0.978148 0.207911
    outer loop
      vertex 20 22.3066 -3.12543
      vertex 27 22.3587 -3.37082
      vertex 20 22.3587 -3.37082
    endloop
  endfacet
  facet normal 0 1 -0
    outer loop
      vertex 27 22.3066 -3.12543
      vertex 20 22.3066 -2.87457
      vertex 27 22.3066 -2.87457
    endloop
  endfacet
  facet normal 0 1 0
    outer loop
      vertex 20 22.3066 -2.87457
      vertex 27 22.3066 -3.12543
      vertex 20 22.3066 -3.12543
    endloop
  endfacet
  facet normal 0 0.669132 -0.743144
    outer loop
      vertex 20 22.6082 -2.19704
      vertex 27 22.7947 -2.02918
      vertex 27 22.6082 -2.19704
    endloop
  endfacet
  facet normal 0 0.669132 -0.743144
    outer loop
      vertex 27 22.7947 -2.02918
      vertex 20 22.6082 -2.19704
      vertex 20 22.7947 -2.02918
    endloop
  endfacet
  facet normal -0 0.500002 0.866024
    outer loop
      vertex 20 23.0119 -4.09625
      vertex 27 22.7947 -3.97082
      vertex 27 23.0119 -4.09625
    endloop
  endfacet
  facet normal 0 0.500002 0.866024
    outer loop
      vertex 27 22.7947 -3.97082
      vertex 20 23.0119 -4.09625
      vertex 20 22.7947 -3.97082
    endloop
  endfacet
  facet normal 0 0.978148 -0.207911
    outer loop
      vertex 27 22.3066 -2.87457
      vertex 20 22.3587 -2.62918
      vertex 27 22.3587 -2.62918
    endloop
  endfacet
  facet normal 0 0.978148 -0.207911
    outer loop
      vertex 20 22.3587 -2.62918
      vertex 27 22.3066 -2.87457
      vertex 20 22.3066 -2.87457
    endloop
  endfacet
  facet normal 0 -0.10453 0.994522
    outer loop
      vertex 20 13.7495 -4.17378
      vertex 27 13.5 -4.2
      vertex 27 13.7495 -4.17378
    endloop
  endfacet
  facet normal 0 -0.10453 0.994522
    outer loop
      vertex 27 13.5 -4.2
      vertex 20 13.7495 -4.17378
      vertex 20 13.5 -4.2
    endloop
  endfacet
  facet normal 0 0.104529 -0.994522
    outer loop
      vertex 20 13.2505 -1.82622
      vertex 27 13.5 -1.8
      vertex 27 13.2505 -1.82622
    endloop
  endfacet
  facet normal 0 0.104529 -0.994522
    outer loop
      vertex 27 13.5 -1.8
      vertex 20 13.2505 -1.82622
      vertex 20 13.5 -1.8
    endloop
  endfacet
  facet normal 0 -0.978148 -0.207911
    outer loop
      vertex 20 14.6934 -2.87457
      vertex 27 14.6413 -2.62918
      vertex 20 14.6413 -2.62918
    endloop
  endfacet
  facet normal 0 -0.978148 -0.207911
    outer loop
      vertex 27 14.6413 -2.62918
      vertex 20 14.6934 -2.87457
      vertex 27 14.6934 -2.87457
    endloop
  endfacet
  facet normal 0 -0.500002 -0.866024
    outer loop
      vertex 20 13.9881 -1.90374
      vertex 27 14.2053 -2.02918
      vertex 27 13.9881 -1.90374
    endloop
  endfacet
  facet normal -0 -0.500002 -0.866024
    outer loop
      vertex 27 14.2053 -2.02918
      vertex 20 13.9881 -1.90374
      vertex 20 14.2053 -2.02918
    endloop
  endfacet
  facet normal 0 -0.809017 -0.587786
    outer loop
      vertex 20 14.5392 -2.4
      vertex 27 14.3918 -2.19704
      vertex 20 14.3918 -2.19704
    endloop
  endfacet
  facet normal 0 -0.809017 -0.587786
    outer loop
      vertex 27 14.3918 -2.19704
      vertex 20 14.5392 -2.4
      vertex 27 14.5392 -2.4
    endloop
  endfacet
  facet normal -0 0.500002 0.866024
    outer loop
      vertex 20 13.0119 -4.09625
      vertex 27 12.7947 -3.97082
      vertex 27 13.0119 -4.09625
    endloop
  endfacet
  facet normal 0 0.500002 0.866024
    outer loop
      vertex 27 12.7947 -3.97082
      vertex 20 13.0119 -4.09625
      vertex 20 12.7947 -3.97082
    endloop
  endfacet
  facet normal 0 -0.309016 0.951057
    outer loop
      vertex 20 13.9881 -4.09625
      vertex 27 13.7495 -4.17378
      vertex 27 13.9881 -4.09625
    endloop
  endfacet
  facet normal 0 -0.309016 0.951057
    outer loop
      vertex 27 13.7495 -4.17378
      vertex 20 13.9881 -4.09625
      vertex 20 13.7495 -4.17378
    endloop
  endfacet
  facet normal 0 -0.66913 0.743145
    outer loop
      vertex 20 14.3918 -3.80296
      vertex 27 14.2053 -3.97082
      vertex 27 14.3918 -3.80296
    endloop
  endfacet
  facet normal 0 -0.66913 0.743145
    outer loop
      vertex 27 14.2053 -3.97082
      vertex 20 14.3918 -3.80296
      vertex 20 14.2053 -3.97082
    endloop
  endfacet
  facet normal 0 -1 0
    outer loop
      vertex 20 14.6934 -3.12543
      vertex 27 14.6934 -2.87457
      vertex 20 14.6934 -2.87457
    endloop
  endfacet
  facet normal 0 -1 -0
    outer loop
      vertex 27 14.6934 -2.87457
      vertex 20 14.6934 -3.12543
      vertex 27 14.6934 -3.12543
    endloop
  endfacet
  facet normal 0 -0.913545 0.406737
    outer loop
      vertex 20 14.5392 -3.6
      vertex 27 14.6413 -3.37082
      vertex 20 14.6413 -3.37082
    endloop
  endfacet
  facet normal 0 -0.913545 0.406737
    outer loop
      vertex 27 14.6413 -3.37082
      vertex 20 14.5392 -3.6
      vertex 27 14.5392 -3.6
    endloop
  endfacet
  facet normal 0 -0.309016 -0.951057
    outer loop
      vertex 20 13.7495 -1.82622
      vertex 27 13.9881 -1.90374
      vertex 27 13.7495 -1.82622
    endloop
  endfacet
  facet normal -0 -0.309016 -0.951057
    outer loop
      vertex 27 13.9881 -1.90374
      vertex 20 13.7495 -1.82622
      vertex 20 13.9881 -1.90374
    endloop
  endfacet
  facet normal 0 -0.10453 -0.994522
    outer loop
      vertex 20 13.5 -1.8
      vertex 27 13.7495 -1.82622
      vertex 27 13.5 -1.8
    endloop
  endfacet
  facet normal -0 -0.10453 -0.994522
    outer loop
      vertex 27 13.7495 -1.82622
      vertex 20 13.5 -1.8
      vertex 20 13.7495 -1.82622
    endloop
  endfacet
  facet normal 0 -0.66913 -0.743145
    outer loop
      vertex 20 14.2053 -2.02918
      vertex 27 14.3918 -2.19704
      vertex 27 14.2053 -2.02918
    endloop
  endfacet
  facet normal -0 -0.66913 -0.743145
    outer loop
      vertex 27 14.3918 -2.19704
      vertex 20 14.2053 -2.02918
      vertex 20 14.3918 -2.19704
    endloop
  endfacet
  facet normal 0 -0.913545 -0.406737
    outer loop
      vertex 20 14.6413 -2.62918
      vertex 27 14.5392 -2.4
      vertex 20 14.5392 -2.4
    endloop
  endfacet
  facet normal 0 -0.913545 -0.406737
    outer loop
      vertex 27 14.5392 -2.4
      vertex 20 14.6413 -2.62918
      vertex 27 14.6413 -2.62918
    endloop
  endfacet
  facet normal -0 0.104529 0.994522
    outer loop
      vertex 20 13.5 -4.2
      vertex 27 13.2505 -4.17378
      vertex 27 13.5 -4.2
    endloop
  endfacet
  facet normal 0 0.104529 0.994522
    outer loop
      vertex 27 13.2505 -4.17378
      vertex 20 13.5 -4.2
      vertex 20 13.2505 -4.17378
    endloop
  endfacet
  facet normal -0 0.309016 0.951057
    outer loop
      vertex 20 13.2505 -4.17378
      vertex 27 13.0119 -4.09625
      vertex 27 13.2505 -4.17378
    endloop
  endfacet
  facet normal 0 0.309016 0.951057
    outer loop
      vertex 27 13.0119 -4.09625
      vertex 20 13.2505 -4.17378
      vertex 20 13.0119 -4.09625
    endloop
  endfacet
  facet normal 0 -0.500002 0.866024
    outer loop
      vertex 20 14.2053 -3.97082
      vertex 27 13.9881 -4.09625
      vertex 27 14.2053 -3.97082
    endloop
  endfacet
  facet normal 0 -0.500002 0.866024
    outer loop
      vertex 27 13.9881 -4.09625
      vertex 20 14.2053 -3.97082
      vertex 20 13.9881 -4.09625
    endloop
  endfacet
  facet normal 0 -0.809017 0.587786
    outer loop
      vertex 20 14.3918 -3.80296
      vertex 27 14.5392 -3.6
      vertex 20 14.5392 -3.6
    endloop
  endfacet
  facet normal 0 -0.809017 0.587786
    outer loop
      vertex 27 14.5392 -3.6
      vertex 20 14.3918 -3.80296
      vertex 27 14.3918 -3.80296
    endloop
  endfacet
  facet normal 0 -0.978148 0.207911
    outer loop
      vertex 20 14.6413 -3.37082
      vertex 27 14.6934 -3.12543
      vertex 20 14.6934 -3.12543
    endloop
  endfacet
  facet normal 0 -0.978148 0.207911
    outer loop
      vertex 27 14.6934 -3.12543
      vertex 20 14.6413 -3.37082
      vertex 27 14.6413 -3.37082
    endloop
  endfacet
  facet normal 0 0.500002 -0.866024
    outer loop
      vertex 20 12.7947 -2.02918
      vertex 27 13.0119 -1.90374
      vertex 27 12.7947 -2.02918
    endloop
  endfacet
  facet normal 0 0.500002 -0.866024
    outer loop
      vertex 27 13.0119 -1.90374
      vertex 20 12.7947 -2.02918
      vertex 20 13.0119 -1.90374
    endloop
  endfacet
  facet normal 0 0.913545 0.406737
    outer loop
      vertex 27 12.4608 -3.6
      vertex 20 12.3587 -3.37082
      vertex 27 12.3587 -3.37082
    endloop
  endfacet
  facet normal 0 0.913545 0.406737
    outer loop
      vertex 20 12.3587 -3.37082
      vertex 27 12.4608 -3.6
      vertex 20 12.4608 -3.6
    endloop
  endfacet
  facet normal -0 0.66913 0.743145
    outer loop
      vertex 20 12.7947 -3.97082
      vertex 27 12.6082 -3.80296
      vertex 27 12.7947 -3.97082
    endloop
  endfacet
  facet normal 0 0.66913 0.743145
    outer loop
      vertex 27 12.6082 -3.80296
      vertex 20 12.7947 -3.97082
      vertex 20 12.6082 -3.80296
    endloop
  endfacet
  facet normal 0 0.978148 0.207911
    outer loop
      vertex 27 12.3587 -3.37082
      vertex 20 12.3066 -3.12543
      vertex 27 12.3066 -3.12543
    endloop
  endfacet
  facet normal 0 0.978148 0.207911
    outer loop
      vertex 20 12.3066 -3.12543
      vertex 27 12.3587 -3.37082
      vertex 20 12.3587 -3.37082
    endloop
  endfacet
  facet normal 0 1 -0
    outer loop
      vertex 27 12.3066 -3.12543
      vertex 20 12.3066 -2.87457
      vertex 27 12.3066 -2.87457
    endloop
  endfacet
  facet normal 0 1 0
    outer loop
      vertex 20 12.3066 -2.87457
      vertex 27 12.3066 -3.12543
      vertex 20 12.3066 -3.12543
    endloop
  endfacet
  facet normal 0 0.978148 -0.207911
    outer loop
      vertex 27 12.3066 -2.87457
      vertex 20 12.3587 -2.62918
      vertex 27 12.3587 -2.62918
    endloop
  endfacet
  facet normal 0 0.978148 -0.207911
    outer loop
      vertex 20 12.3587 -2.62918
      vertex 27 12.3066 -2.87457
      vertex 20 12.3066 -2.87457
    endloop
  endfacet
  facet normal 0 0.809017 -0.587786
    outer loop
      vertex 27 12.4608 -2.4
      vertex 20 12.6082 -2.19704
      vertex 27 12.6082 -2.19704
    endloop
  endfacet
  facet normal 0 0.809017 -0.587786
    outer loop
      vertex 20 12.6082 -2.19704
      vertex 27 12.4608 -2.4
      vertex 20 12.4608 -2.4
    endloop
  endfacet
  facet normal 0 0.66913 -0.743145
    outer loop
      vertex 20 12.6082 -2.19704
      vertex 27 12.7947 -2.02918
      vertex 27 12.6082 -2.19704
    endloop
  endfacet
  facet normal 0 0.66913 -0.743145
    outer loop
      vertex 27 12.7947 -2.02918
      vertex 20 12.6082 -2.19704
      vertex 20 12.7947 -2.02918
    endloop
  endfacet
  facet normal 0 0.309016 -0.951057
    outer loop
      vertex 20 13.0119 -1.90374
      vertex 27 13.2505 -1.82622
      vertex 27 13.0119 -1.90374
    endloop
  endfacet
  facet normal 0 0.309016 -0.951057
    outer loop
      vertex 27 13.2505 -1.82622
      vertex 20 13.0119 -1.90374
      vertex 20 13.2505 -1.82622
    endloop
  endfacet
  facet normal 0 0.809017 0.587786
    outer loop
      vertex 27 12.6082 -3.80296
      vertex 20 12.4608 -3.6
      vertex 27 12.4608 -3.6
    endloop
  endfacet
  facet normal 0 0.809017 0.587786
    outer loop
      vertex 20 12.4608 -3.6
      vertex 27 12.6082 -3.80296
      vertex 20 12.6082 -3.80296
    endloop
  endfacet
  facet normal 0 0.913545 -0.406737
    outer loop
      vertex 27 12.3587 -2.62918
      vertex 20 12.4608 -2.4
      vertex 27 12.4608 -2.4
    endloop
  endfacet
  facet normal 0 0.913545 -0.406737
    outer loop
      vertex 20 12.4608 -2.4
      vertex 27 12.3587 -2.62918
      vertex 20 12.3587 -2.62918
    endloop
  endfacet
  facet normal -0.923879 -0.382684 -1.57391e-007
    outer loop
      vertex 22.75 13 53
      vertex 22.1642 14.4142 50.1839
      vertex 22.3481 13.9703 50
    endloop
  endfacet
  facet normal -0.923879 -0.382684 -0
    outer loop
      vertex 22.75 13 53
      vertex 22.3481 13.9703 50
      vertex 22.75 13 48.5
    endloop
  endfacet
  facet normal -0.923879 -0.382684 0
    outer loop
      vertex 22.1642 14.4142 50.1839
      vertex 22.75 13 53
      vertex 22.1642 14.4142 53
    endloop
  endfacet
  facet normal -0.382684 -0.923879 0
    outer loop
      vertex 21.25 14.7929 51.0981
      vertex 20.75 15 53
      vertex 20.75 15 51.2321
    endloop
  endfacet
  facet normal -0.382684 -0.923879 1.98297e-007
    outer loop
      vertex 20.75 15 53
      vertex 21.25 14.7929 51.0981
      vertex 22.1642 14.4142 53
    endloop
  endfacet
  facet normal -0.382683 -0.92388 -0
    outer loop
      vertex 22.1642 14.4142 53
      vertex 21.25 14.7929 51.0981
      vertex 22.1642 14.4142 50.1839
    endloop
  endfacet
  facet normal -1 0 0
    outer loop
      vertex 22.75 20.25 0
      vertex 22.75 18.5 11.25
      vertex 22.75 20.25 11.7638
    endloop
  endfacet
  facet normal -1 0 0
    outer loop
      vertex 22.75 20.25 0
      vertex 22.75 16.6078 11.8056
      vertex 22.75 18.5 11.25
    endloop
  endfacet
  facet normal -1 0 0
    outer loop
      vertex 22.75 10.1468 0
      vertex 22.75 16.6078 11.8056
      vertex 22.75 20.25 0
    endloop
  endfacet
  facet normal -1 0 0
    outer loop
      vertex 22.75 15.3163 44.296
      vertex 22.75 13 48.5
      vertex 22.75 15.0356 46.2481
    endloop
  endfacet
  facet normal -1 0 0
    outer loop
      vertex 22.75 13 48.5
      vertex 22.75 11.2366 52.4271
      vertex 22.75 13 53
    endloop
  endfacet
  facet normal -1 0 0
    outer loop
      vertex 22.75 15.3163 44.296
      vertex 22.75 10.1468 50.9271
      vertex 22.75 13 48.5
    endloop
  endfacet
  facet normal -1 -0 0
    outer loop
      vertex 22.75 16.6078 11.8056
      vertex 22.75 10.1468 0
      vertex 22.75 15.3163 13.296
    endloop
  endfacet
  facet normal -1 0 0
    outer loop
      vertex 22.75 10.1468 0
      vertex 22.75 15.0356 15.2481
      vertex 22.75 15.3163 13.296
    endloop
  endfacet
  facet normal -1 0 0
    outer loop
      vertex 22.75 10.1468 50.9271
      vertex 22.75 15.0356 15.2481
      vertex 22.75 10.1468 0
    endloop
  endfacet
  facet normal -1 0 0
    outer loop
      vertex 22.75 13 48.5
      vertex 22.75 10.1468 50.9271
      vertex 22.75 11.2366 52.4271
    endloop
  endfacet
  facet normal -1 0 0
    outer loop
      vertex 22.75 19.4861 18.1082
      vertex 22.75 20.25 42.7638
      vertex 22.75 20.25 17.6173
    endloop
  endfacet
  facet normal -1 0 0
    outer loop
      vertex 22.75 19.4861 18.1082
      vertex 22.75 18.5 42.25
      vertex 22.75 20.25 42.7638
    endloop
  endfacet
  facet normal -1 0 0
    outer loop
      vertex 22.75 17.5139 18.1082
      vertex 22.75 18.5 42.25
      vertex 22.75 19.4861 18.1082
    endloop
  endfacet
  facet normal -1 0 0
    outer loop
      vertex 22.75 17.5139 18.1082
      vertex 22.75 16.6078 42.8056
      vertex 22.75 18.5 42.25
    endloop
  endfacet
  facet normal -1 0 0
    outer loop
      vertex 22.75 15.8549 17.042
      vertex 22.75 16.6078 42.8056
      vertex 22.75 17.5139 18.1082
    endloop
  endfacet
  facet normal -1 0 0
    outer loop
      vertex 22.75 15.8549 17.042
      vertex 22.75 15.3163 44.296
      vertex 22.75 16.6078 42.8056
    endloop
  endfacet
  facet normal -1 0 0
    outer loop
      vertex 22.75 10.1468 50.9271
      vertex 22.75 15.8549 17.042
      vertex 22.75 15.0356 15.2481
    endloop
  endfacet
  facet normal -1 0 0
    outer loop
      vertex 22.75 15.8549 17.042
      vertex 22.75 10.1468 50.9271
      vertex 22.75 15.3163 44.296
    endloop
  endfacet
  facet normal -1 0 0
    outer loop
      vertex 22.75 15.8549 48.042
      vertex 22.75 13 48.5
      vertex 22.75 16.5675 48.5
    endloop
  endfacet
  facet normal -1 0 0
    outer loop
      vertex 22.75 13 48.5
      vertex 22.75 15.8549 48.042
      vertex 22.75 15.0356 46.2481
    endloop
  endfacet
  facet normal 0 0 1
    outer loop
      vertex 20 23.183 0
      vertex 22.75 20.25 0
      vertex 22.3481 21.75 0
    endloop
  endfacet
  facet normal 0 0 1
    outer loop
      vertex 20 23.183 0
      vertex 22.3481 21.75 0
      vertex 21.25 22.8481 0
    endloop
  endfacet
  facet normal 0 0 1
    outer loop
      vertex 22.75 20.25 0
      vertex 20 23.183 0
      vertex 20 10.1468 0
    endloop
  endfacet
  facet normal 0 0 1
    outer loop
      vertex 22.75 20.25 0
      vertex 20 10.1468 0
      vertex 22.75 10.1468 0
    endloop
  endfacet
  facet normal 0 -1 0
    outer loop
      vertex 20 15 51.433
      vertex 20.75 15 53
      vertex 20 15 53
    endloop
  endfacet
  facet normal 0 -1 -0
    outer loop
      vertex 20.75 15 53
      vertex 20 15 51.433
      vertex 20.75 15 51.2321
    endloop
  endfacet
  facet normal -0.258821 0 -0.965925
    outer loop
      vertex 20 17.6514 51.433
      vertex 21.25 19.3402 51.0981
      vertex 21.25 14.7929 51.0981
    endloop
  endfacet
  facet normal -0.258823 -1.10342e-006 -0.965925
    outer loop
      vertex 20 17.6514 51.433
      vertex 21.25 14.7929 51.0981
      vertex 20.75 15 51.2321
    endloop
  endfacet
  facet normal -0.258819 -0 -0.965926
    outer loop
      vertex 20 17.6514 51.433
      vertex 20.75 15 51.2321
      vertex 20 15 51.433
    endloop
  endfacet
  facet normal -0.258826 4.17945e-006 -0.965924
    outer loop
      vertex 21.25 19.3402 51.0981
      vertex 20 17.6514 51.433
      vertex 20.9633 19.1982 51.1749
    endloop
  endfacet
  facet normal -0.965926 5.21009e-007 -0.25882
    outer loop
      vertex 22.7309 20.3214 48.5714
      vertex 22.3481 21.1515 50
      vertex 22.4316 21.4384 49.6884
    endloop
  endfacet
  facet normal -0.965926 6.95318e-007 -0.25882
    outer loop
      vertex 22.587 19.4861 49.1082
      vertex 22.3481 21.1515 50
      vertex 22.7309 20.3214 48.5714
    endloop
  endfacet
  facet normal -0.965926 0 -0.258819
    outer loop
      vertex 22.587 17.5139 49.1082
      vertex 22.3481 21.1515 50
      vertex 22.587 19.4861 49.1082
    endloop
  endfacet
  facet normal -0.965926 0 -0.258819
    outer loop
      vertex 22.587 17.5139 49.1082
      vertex 22.3481 13.9703 50
      vertex 22.3481 21.1515 50
    endloop
  endfacet
  facet normal -0.965926 -1.99437e-007 -0.25882
    outer loop
      vertex 22.75 16.5675 48.5
      vertex 22.3481 13.9703 50
      vertex 22.587 17.5139 49.1082
    endloop
  endfacet
  facet normal -0.965926 0 -0.258819
    outer loop
      vertex 22.3481 13.9703 50
      vertex 22.75 16.5675 48.5
      vertex 22.75 13 48.5
    endloop
  endfacet
  facet normal -0.707103 0 -0.70711
    outer loop
      vertex 22.1642 14.4142 50.1839
      vertex 22.3481 21.1515 50
      vertex 22.3481 13.9703 50
    endloop
  endfacet
  facet normal -0.707106 1.74523e-007 -0.707107
    outer loop
      vertex 21.25 19.3402 51.0981
      vertex 22.3481 21.1515 50
      vertex 22.1642 14.4142 50.1839
    endloop
  endfacet
  facet normal -0.707107 -0 -0.707107
    outer loop
      vertex 21.25 19.3402 51.0981
      vertex 22.1642 14.4142 50.1839
      vertex 21.25 14.7929 51.0981
    endloop
  endfacet
  facet normal -0.707101 -6.19353e-006 -0.707113
    outer loop
      vertex 22.3481 21.1515 50
      vertex 21.25 19.3402 51.0981
      vertex 22.1132 20.9353 50.2348
    endloop
  endfacet
  facet normal -0.965925 -0.258821 0
    outer loop
      vertex 22.5102 21.1451 48.042
      vertex 22.3481 21.75 49.3498
      vertex 22.3481 21.75 46.7175
    endloop
  endfacet
  facet normal -0.965926 -0.25882 -3.90555e-007
    outer loop
      vertex 22.7309 20.3214 48.5714
      vertex 22.3481 21.75 49.3498
      vertex 22.5102 21.1451 48.042
    endloop
  endfacet
  facet normal -0.965925 -0.258821 1.23889e-006
    outer loop
      vertex 22.3481 21.75 49.3498
      vertex 22.7309 20.3214 48.5714
      vertex 22.4316 21.4384 49.6884
    endloop
  endfacet
  facet normal -0.965926 -0.258818 0
    outer loop
      vertex 22.3481 21.75 0
      vertex 22.3658 21.6837 13.296
      vertex 22.3481 21.75 13.7571
    endloop
  endfacet
  facet normal -0.965926 -0.258819 -5.74057e-009
    outer loop
      vertex 22.3481 21.75 0
      vertex 22.7119 20.3922 11.8056
      vertex 22.3658 21.6837 13.296
    endloop
  endfacet
  facet normal -0.965926 -0.25882 -0
    outer loop
      vertex 22.75 20.25 11.7638
      vertex 22.3481 21.75 0
      vertex 22.75 20.25 0
    endloop
  endfacet
  facet normal -0.965925 -0.258824 -6.02513e-007
    outer loop
      vertex 22.3481 21.75 0
      vertex 22.75 20.25 11.7638
      vertex 22.7119 20.3922 11.8056
    endloop
  endfacet
  facet normal -0.965928 -0.258811 0
    outer loop
      vertex 22.3481 21.75 15.7175
      vertex 22.3658 21.6837 44.296
      vertex 22.3481 21.75 44.7571
    endloop
  endfacet
  facet normal -0.965925 -0.258821 -2.3681e-008
    outer loop
      vertex 22.5102 21.1451 17.042
      vertex 22.3658 21.6837 44.296
      vertex 22.3481 21.75 15.7175
    endloop
  endfacet
  facet normal -0.965926 -0.258819 -4.89468e-008
    outer loop
      vertex 22.5102 21.1451 17.042
      vertex 22.7119 20.3922 42.8056
      vertex 22.3658 21.6837 44.296
    endloop
  endfacet
  facet normal -0.965926 -0.258819 -3.17482e-008
    outer loop
      vertex 22.75 20.25 17.6173
      vertex 22.7119 20.3922 42.8056
      vertex 22.5102 21.1451 17.042
    endloop
  endfacet
  facet normal -0.965924 -0.258824 0
    outer loop
      vertex 22.7119 20.3922 42.8056
      vertex 22.75 20.25 17.6173
      vertex 22.75 20.25 42.7638
    endloop
  endfacet
  facet normal -0.258818 -0.965926 -9.02161e-007
    outer loop
      vertex 20 23.183 45.5656
      vertex 21.25 22.8481 47.4706
      vertex 20.4352 23.0664 46.9729
    endloop
  endfacet
  facet normal -0.258819 -0.965926 0
    outer loop
      vertex 21.25 22.8481 0
      vertex 20 23.183 45.5656
      vertex 20 23.183 0
    endloop
  endfacet
  facet normal -0.258819 -0.965926 0
    outer loop
      vertex 20 23.183 45.5656
      vertex 21.25 22.8481 0
      vertex 21.25 22.8481 47.4706
    endloop
  endfacet
  facet normal -0.707107 -0.707106 -3.61332e-008
    outer loop
      vertex 22.1337 21.9644 15.2481
      vertex 22.3481 21.75 44.7571
      vertex 21.25 22.8481 47.4706
    endloop
  endfacet
  facet normal -0.707106 -0.707108 1.12915e-006
    outer loop
      vertex 21.25 22.8481 47.4706
      vertex 22.3481 21.75 44.7571
      vertex 22.1337 21.9644 46.2481
    endloop
  endfacet
  facet normal -0.707107 -0.707107 0
    outer loop
      vertex 22.1337 21.9644 15.2481
      vertex 21.25 22.8481 47.4706
      vertex 21.25 22.8481 0
    endloop
  endfacet
  facet normal -0.70711 -0.707104 -0
    outer loop
      vertex 22.3481 21.75 44.7571
      vertex 22.1337 21.9644 15.2481
      vertex 22.3481 21.75 15.7175
    endloop
  endfacet
  facet normal -0.707107 -0.707106 -0
    outer loop
      vertex 22.3481 21.75 13.7571
      vertex 21.25 22.8481 0
      vertex 22.3481 21.75 0
    endloop
  endfacet
  facet normal -0.707109 -0.707105 2.59864e-007
    outer loop
      vertex 21.25 22.8481 0
      vertex 22.3481 21.75 13.7571
      vertex 22.1337 21.9644 15.2481
    endloop
  endfacet
  facet normal -0.707108 -0.707106 -1.76072e-006
    outer loop
      vertex 22.3481 21.75 46.7175
      vertex 21.25 22.8481 47.4706
      vertex 22.1337 21.9644 46.2481
    endloop
  endfacet
  facet normal -0.707107 -0.707106 4.14157e-007
    outer loop
      vertex 21.25 22.8481 47.4706
      vertex 22.3481 21.75 46.7175
      vertex 21.8251 22.273 48.7817
    endloop
  endfacet
  facet normal -0.707108 -0.707105 0
    outer loop
      vertex 21.8251 22.273 48.7817
      vertex 22.3481 21.75 46.7175
      vertex 22.3481 21.75 49.3498
    endloop
  endfacet
  facet normal 0 -0.164595 -0.986361
    outer loop
      vertex 20 19.1982 51.1749
      vertex 20.9633 19.1982 51.1749
      vertex 20 17.6514 51.433
    endloop
  endfacet
  facet normal 0 -0.996584 -0.0825796
    outer loop
      vertex 20 23.183 45.5656
      vertex 20.4352 23.0664 46.9729
      vertex 20 23.0664 46.9729
    endloop
  endfacet
  facet normal 0 -0.735723 -0.677282
    outer loop
      vertex 21.8251 22.273 48.7817
      vertex 22.1132 20.9353 50.2348
      vertex 20 20.9353 50.2348
    endloop
  endfacet
  facet normal 2.12099e-006 -0.735723 -0.677282
    outer loop
      vertex 22.3481 21.75 49.3498
      vertex 22.1132 20.9353 50.2348
      vertex 21.8251 22.273 48.7817
    endloop
  endfacet
  facet normal 4.73983e-006 -0.735723 -0.677282
    outer loop
      vertex 22.4316 21.4384 49.6884
      vertex 22.1132 20.9353 50.2348
      vertex 22.3481 21.75 49.3498
    endloop
  endfacet
  facet normal -0 -0.735723 -0.677282
    outer loop
      vertex 21.8251 22.273 48.7817
      vertex 20 20.9353 50.2348
      vertex 20 22.273 48.7817
    endloop
  endfacet
  facet normal 1.07921e-005 -0.735725 -0.67728
    outer loop
      vertex 22.1132 20.9353 50.2348
      vertex 22.4316 21.4384 49.6884
      vertex 22.3481 21.1515 50
    endloop
  endfacet
  facet normal -1.69792e-006 -0.475949 -0.879473
    outer loop
      vertex 20 20.9353 50.2348
      vertex 21.25 19.3402 51.0981
      vertex 20.9633 19.1982 51.1749
    endloop
  endfacet
  facet normal 0 -0.475949 -0.879473
    outer loop
      vertex 20 20.9353 50.2348
      vertex 20.9633 19.1982 51.1749
      vertex 20 19.1982 51.1749
    endloop
  endfacet
  facet normal 0 -0.475948 -0.879473
    outer loop
      vertex 21.25 19.3402 51.0981
      vertex 20 20.9353 50.2348
      vertex 22.1132 20.9353 50.2348
    endloop
  endfacet
  facet normal 0 -0.915773 -0.401696
    outer loop
      vertex 20 22.273 48.7817
      vertex 21.25 22.8481 47.4706
      vertex 21.8251 22.273 48.7817
    endloop
  endfacet
  facet normal -0 -0.915774 -0.401695
    outer loop
      vertex 20.4352 23.0664 46.9729
      vertex 20 22.273 48.7817
      vertex 20 23.0664 46.9729
    endloop
  endfacet
  facet normal 1.33916e-006 -0.915774 -0.401695
    outer loop
      vertex 20 22.273 48.7817
      vertex 20.4352 23.0664 46.9729
      vertex 21.25 22.8481 47.4706
    endloop
  endfacet
  facet normal 0 -0.281733 -0.959493
    outer loop
      vertex 20 16.6078 11.8056
      vertex 22.75 18.5 11.25
      vertex 22.75 16.6078 11.8056
    endloop
  endfacet
  facet normal -0 -0.281733 -0.959493
    outer loop
      vertex 22.75 18.5 11.25
      vertex 20 16.6078 11.8056
      vertex 20 18.5 11.25
    endloop
  endfacet
  facet normal -0 0 1
    outer loop
      vertex 20 19.4861 18.1082
      vertex 22.75 17.5139 18.1082
      vertex 22.75 19.4861 18.1082
    endloop
  endfacet
  facet normal 0 0 1
    outer loop
      vertex 22.75 17.5139 18.1082
      vertex 20 19.4861 18.1082
      vertex 20 17.5139 18.1082
    endloop
  endfacet
  facet normal 0 -0.909632 0.415415
    outer loop
      vertex 20 15.0356 15.2481
      vertex 22.75 15.8549 17.042
      vertex 20 15.8549 17.042
    endloop
  endfacet
  facet normal 0 -0.909632 0.415415
    outer loop
      vertex 22.75 15.8549 17.042
      vertex 20 15.0356 15.2481
      vertex 22.75 15.0356 15.2481
    endloop
  endfacet
  facet normal 0 -0.540641 0.841253
    outer loop
      vertex 20 17.5139 18.1082
      vertex 22.75 15.8549 17.042
      vertex 22.75 17.5139 18.1082
    endloop
  endfacet
  facet normal 0 -0.540641 0.841253
    outer loop
      vertex 22.75 15.8549 17.042
      vertex 20 17.5139 18.1082
      vertex 20 15.8549 17.042
    endloop
  endfacet
  facet normal 0 0.989821 -0.142316
    outer loop
      vertex 22.3481 21.75 13.7571
      vertex 20 21.9644 15.2481
      vertex 22.1337 21.9644 15.2481
    endloop
  endfacet
  facet normal 0 0.989822 -0.142311
    outer loop
      vertex 20 21.6837 13.296
      vertex 22.3481 21.75 13.7571
      vertex 22.3658 21.6837 13.296
    endloop
  endfacet
  facet normal 7.27955e-007 0.989821 -0.142315
    outer loop
      vertex 22.3481 21.75 13.7571
      vertex 20 21.6837 13.296
      vertex 20 21.9644 15.2481
    endloop
  endfacet
  facet normal 0 0.755749 -0.654861
    outer loop
      vertex 20 20.3922 11.8056
      vertex 22.3658 21.6837 13.296
      vertex 22.7119 20.3922 11.8056
    endloop
  endfacet
  facet normal 0 0.755749 -0.654861
    outer loop
      vertex 22.3658 21.6837 13.296
      vertex 20 20.3922 11.8056
      vertex 20 21.6837 13.296
    endloop
  endfacet
  facet normal 0 -0.989821 -0.142315
    outer loop
      vertex 20 15.3163 13.296
      vertex 22.75 15.0356 15.2481
      vertex 20 15.0356 15.2481
    endloop
  endfacet
  facet normal 0 -0.989821 -0.142315
    outer loop
      vertex 22.75 15.0356 15.2481
      vertex 20 15.3163 13.296
      vertex 22.75 15.3163 13.296
    endloop
  endfacet
  facet normal 0 -0.75575 -0.654861
    outer loop
      vertex 20 16.6078 11.8056
      vertex 22.75 15.3163 13.296
      vertex 20 15.3163 13.296
    endloop
  endfacet
  facet normal 0 -0.75575 -0.654861
    outer loop
      vertex 22.75 15.3163 13.296
      vertex 20 16.6078 11.8056
      vertex 22.75 16.6078 11.8056
    endloop
  endfacet
  facet normal -6.98423e-007 0.540642 0.841253
    outer loop
      vertex 20 19.4861 18.1082
      vertex 22.75 20.25 17.6173
      vertex 22.5102 21.1451 17.042
    endloop
  endfacet
  facet normal 0 0.540641 0.841253
    outer loop
      vertex 20 19.4861 18.1082
      vertex 22.5102 21.1451 17.042
      vertex 20 21.1451 17.042
    endloop
  endfacet
  facet normal 0 0.54064 0.841254
    outer loop
      vertex 22.75 20.25 17.6173
      vertex 20 19.4861 18.1082
      vertex 22.75 19.4861 18.1082
    endloop
  endfacet
  facet normal 0 0.281733 -0.959493
    outer loop
      vertex 20 18.5 11.25
      vertex 22.75 20.25 11.7638
      vertex 22.75 18.5 11.25
    endloop
  endfacet
  facet normal 1.93619e-008 0.281733 -0.959493
    outer loop
      vertex 20 20.3922 11.8056
      vertex 22.75 20.25 11.7638
      vertex 20 18.5 11.25
    endloop
  endfacet
  facet normal 0 0.281733 -0.959493
    outer loop
      vertex 22.75 20.25 11.7638
      vertex 20 20.3922 11.8056
      vertex 22.7119 20.3922 11.8056
    endloop
  endfacet
  facet normal 0 0.909632 0.415415
    outer loop
      vertex 22.3481 21.75 15.7175
      vertex 20 21.1451 17.042
      vertex 22.5102 21.1451 17.042
    endloop
  endfacet
  facet normal -0 0.909632 0.415416
    outer loop
      vertex 20 21.9644 15.2481
      vertex 22.3481 21.75 15.7175
      vertex 22.1337 21.9644 15.2481
    endloop
  endfacet
  facet normal 1.66499e-007 0.909632 0.415415
    outer loop
      vertex 22.3481 21.75 15.7175
      vertex 20 21.9644 15.2481
      vertex 20 21.1451 17.042
    endloop
  endfacet
  facet normal 0 -0.281733 -0.959493
    outer loop
      vertex 20 16.6078 42.8056
      vertex 22.75 18.5 42.25
      vertex 22.75 16.6078 42.8056
    endloop
  endfacet
  facet normal -0 -0.281733 -0.959493
    outer loop
      vertex 22.75 18.5 42.25
      vertex 20 16.6078 42.8056
      vertex 20 18.5 42.25
    endloop
  endfacet
  facet normal -0 0 1
    outer loop
      vertex 20 19.4861 49.1082
      vertex 22.587 17.5139 49.1082
      vertex 22.587 19.4861 49.1082
    endloop
  endfacet
  facet normal 0 0 1
    outer loop
      vertex 22.587 17.5139 49.1082
      vertex 20 19.4861 49.1082
      vertex 20 17.5139 49.1082
    endloop
  endfacet
  facet normal 0 -0.909632 0.415415
    outer loop
      vertex 20 15.0356 46.2481
      vertex 22.75 15.8549 48.042
      vertex 20 15.8549 48.042
    endloop
  endfacet
  facet normal 0 -0.909632 0.415415
    outer loop
      vertex 22.75 15.8549 48.042
      vertex 20 15.0356 46.2481
      vertex 22.75 15.0356 46.2481
    endloop
  endfacet
  facet normal 0 -0.540639 0.841254
    outer loop
      vertex 20 17.5139 49.1082
      vertex 22.75 16.5675 48.5
      vertex 22.587 17.5139 49.1082
    endloop
  endfacet
  facet normal -3.77424e-007 -0.54064 0.841254
    outer loop
      vertex 22.75 16.5675 48.5
      vertex 20 17.5139 49.1082
      vertex 20 15.8549 48.042
    endloop
  endfacet
  facet normal 0 -0.540641 0.841253
    outer loop
      vertex 22.75 16.5675 48.5
      vertex 20 15.8549 48.042
      vertex 22.75 15.8549 48.042
    endloop
  endfacet
  facet normal 0 0.989821 -0.142316
    outer loop
      vertex 22.3481 21.75 44.7571
      vertex 20 21.9644 46.2481
      vertex 22.1337 21.9644 46.2481
    endloop
  endfacet
  facet normal 0 0.989821 -0.142314
    outer loop
      vertex 20 21.6837 44.296
      vertex 22.3481 21.75 44.7571
      vertex 22.3658 21.6837 44.296
    endloop
  endfacet
  facet normal 2.29423e-007 0.989821 -0.142316
    outer loop
      vertex 22.3481 21.75 44.7571
      vertex 20 21.6837 44.296
      vertex 20 21.9644 46.2481
    endloop
  endfacet
  facet normal 0 0.755749 -0.654861
    outer loop
      vertex 20 20.3922 42.8056
      vertex 22.3658 21.6837 44.296
      vertex 22.7119 20.3922 42.8056
    endloop
  endfacet
  facet normal 0 0.755749 -0.654861
    outer loop
      vertex 22.3658 21.6837 44.296
      vertex 20 20.3922 42.8056
      vertex 20 21.6837 44.296
    endloop
  endfacet
  facet normal 0 -0.989821 -0.142315
    outer loop
      vertex 20 15.3163 44.296
      vertex 22.75 15.0356 46.2481
      vertex 20 15.0356 46.2481
    endloop
  endfacet
  facet normal 0 -0.989821 -0.142315
    outer loop
      vertex 22.75 15.0356 46.2481
      vertex 20 15.3163 44.296
      vertex 22.75 15.3163 44.296
    endloop
  endfacet
  facet normal 0 -0.755749 -0.654861
    outer loop
      vertex 20 16.6078 42.8056
      vertex 22.75 15.3163 44.296
      vertex 20 15.3163 44.296
    endloop
  endfacet
  facet normal 0 -0.755749 -0.654861
    outer loop
      vertex 22.75 15.3163 44.296
      vertex 20 16.6078 42.8056
      vertex 22.75 16.6078 42.8056
    endloop
  endfacet
  facet normal -0 0.540642 0.841253
    outer loop
      vertex 20 21.1451 48.042
      vertex 22.7309 20.3214 48.5714
      vertex 22.5102 21.1451 48.042
    endloop
  endfacet
  facet normal -5.92652e-007 0.54064 0.841254
    outer loop
      vertex 22.7309 20.3214 48.5714
      vertex 20 21.1451 48.042
      vertex 20 19.4861 49.1082
    endloop
  endfacet
  facet normal 0 0.540639 0.841255
    outer loop
      vertex 22.7309 20.3214 48.5714
      vertex 20 19.4861 49.1082
      vertex 22.587 19.4861 49.1082
    endloop
  endfacet
  facet normal 0 0.281733 -0.959493
    outer loop
      vertex 20 18.5 42.25
      vertex 22.75 20.25 42.7638
      vertex 22.75 18.5 42.25
    endloop
  endfacet
  facet normal -2.88368e-007 0.281733 -0.959493
    outer loop
      vertex 20 20.3922 42.8056
      vertex 22.75 20.25 42.7638
      vertex 20 18.5 42.25
    endloop
  endfacet
  facet normal 0 0.281739 -0.959491
    outer loop
      vertex 22.75 20.25 42.7638
      vertex 20 20.3922 42.8056
      vertex 22.7119 20.3922 42.8056
    endloop
  endfacet
  facet normal 0 0.909632 0.415415
    outer loop
      vertex 22.3481 21.75 46.7175
      vertex 20 21.1451 48.042
      vertex 22.5102 21.1451 48.042
    endloop
  endfacet
  facet normal -0 0.909632 0.415416
    outer loop
      vertex 20 21.9644 46.2481
      vertex 22.3481 21.75 46.7175
      vertex 22.1337 21.9644 46.2481
    endloop
  endfacet
  facet normal 2.10648e-007 0.909632 0.415415
    outer loop
      vertex 22.3481 21.75 46.7175
      vertex 20 21.9644 46.2481
      vertex 20 21.1451 48.042
    endloop
  endfacet
endsolid OpenSCAD_Model
