solid OpenSCAD_Model
  facet normal -1 0 0
    outer loop
      vertex 0 -8.57224e-016 -7
      vertex 0 -4.5 -4.75
      vertex 0 -2.25 -4.75
    endloop
  endfacet
  facet normal -1 0 0
    outer loop
      vertex 0 -4.5 -4.75
      vertex 0 -6.75 -4.75
      vertex 0 -4.5 5.51073e-016
    endloop
  endfacet
  facet normal -1 0 0
    outer loop
      vertex 0 -9.25 -7
      vertex 0 -4.5 -4.75
      vertex 0 -8.57224e-016 -7
    endloop
  endfacet
  facet normal -1 -0 0
    outer loop
      vertex 0 -4.5 -4.75
      vertex 0 -9.25 -7
      vertex 0 -6.75 -4.75
    endloop
  endfacet
  facet normal -1 -0 0
    outer loop
      vertex 0 -6.75 -4.75
      vertex 0 -9.25 -7
      vertex 0 -9.25 -4.75
    endloop
  endfacet
  facet normal -1 0 0
    outer loop
      vertex 0 -2.25 -4.75
      vertex 0 0 0
      vertex 0 -8.57224e-016 -7
    endloop
  endfacet
  facet normal -1 -0 0
    outer loop
      vertex 0 0 0
      vertex 0 -2.25 -4.75
      vertex 0 -2.25 2.75536e-016
    endloop
  endfacet
  facet normal -1 -0 0
    outer loop
      vertex 0 -4.5 5.51073e-016
      vertex 0 -6.75 -4.75
      vertex 0 -6.75 8.26609e-016
    endloop
  endfacet
  facet normal 0 0 -1
    outer loop
      vertex 0 -9.25 -7
      vertex 100 -8.57224e-016 -7
      vertex 100 -9.25 -7
    endloop
  endfacet
  facet normal -0 0 -1
    outer loop
      vertex 100 -8.57224e-016 -7
      vertex 0 -9.25 -7
      vertex 0 -8.57224e-016 -7
    endloop
  endfacet
  facet normal 1 0 0
    outer loop
      vertex 100 -4.5 5.51073e-016
      vertex 100 -6.75 8.26609e-016
      vertex 100 -4.5 -4.75
    endloop
  endfacet
  facet normal 1 0 0
    outer loop
      vertex 100 -2.25 -4.75
      vertex 100 0 0
      vertex 100 -2.25 2.75536e-016
    endloop
  endfacet
  facet normal 1 0 0
    outer loop
      vertex 100 0 0
      vertex 100 -2.25 -4.75
      vertex 100 -8.57224e-016 -7
    endloop
  endfacet
  facet normal 1 -0 0
    outer loop
      vertex 100 -4.5 -4.75
      vertex 100 -8.57224e-016 -7
      vertex 100 -2.25 -4.75
    endloop
  endfacet
  facet normal 1 0 0
    outer loop
      vertex 100 -6.75 -4.75
      vertex 100 -4.5 -4.75
      vertex 100 -6.75 8.26609e-016
    endloop
  endfacet
  facet normal 1 0 0
    outer loop
      vertex 100 -9.25 -7
      vertex 100 -4.5 -4.75
      vertex 100 -6.75 -4.75
    endloop
  endfacet
  facet normal 1 0 0
    outer loop
      vertex 100 -9.25 -7
      vertex 100 -6.75 -4.75
      vertex 100 -9.25 -4.75
    endloop
  endfacet
  facet normal 1 0 0
    outer loop
      vertex 100 -4.5 -4.75
      vertex 100 -9.25 -7
      vertex 100 -8.57224e-016 -7
    endloop
  endfacet
  facet normal -0 1.22461e-016 1
    outer loop
      vertex 0 -4.5 5.51073e-016
      vertex 100 -6.75 8.26609e-016
      vertex 100 -4.5 5.51073e-016
    endloop
  endfacet
  facet normal 0 1.22461e-016 1
    outer loop
      vertex 100 -6.75 8.26609e-016
      vertex 0 -4.5 5.51073e-016
      vertex 0 -6.75 8.26609e-016
    endloop
  endfacet
  facet normal -0 1.22461e-016 1
    outer loop
      vertex 0 0 0
      vertex 100 -2.25 2.75536e-016
      vertex 100 0 0
    endloop
  endfacet
  facet normal 0 1.22461e-016 1
    outer loop
      vertex 100 -2.25 2.75536e-016
      vertex 0 0 0
      vertex 0 -2.25 2.75536e-016
    endloop
  endfacet
  facet normal 0 1 -1.22461e-016
    outer loop
      vertex 100 -8.57224e-016 -7
      vertex 0 0 0
      vertex 100 0 0
    endloop
  endfacet
  facet normal 0 1 -1.22461e-016
    outer loop
      vertex 0 0 0
      vertex 100 -8.57224e-016 -7
      vertex 0 -8.57224e-016 -7
    endloop
  endfacet
  facet normal 0 -1 0
    outer loop
      vertex 0 -6.75 -4.75
      vertex 100 -6.75 8.26609e-016
      vertex 0 -6.75 8.26609e-016
    endloop
  endfacet
  facet normal 0 -1 -0
    outer loop
      vertex 100 -6.75 8.26609e-016
      vertex 0 -6.75 -4.75
      vertex 100 -6.75 -4.75
    endloop
  endfacet
  facet normal -0 0 1
    outer loop
      vertex 0 -2.25 -4.75
      vertex 100 -4.5 -4.75
      vertex 100 -2.25 -4.75
    endloop
  endfacet
  facet normal 0 0 1
    outer loop
      vertex 100 -4.5 -4.75
      vertex 0 -2.25 -4.75
      vertex 0 -4.5 -4.75
    endloop
  endfacet
  facet normal 0 1 -0
    outer loop
      vertex 100 -4.5 -4.75
      vertex 0 -4.5 5.51073e-016
      vertex 100 -4.5 5.51073e-016
    endloop
  endfacet
  facet normal 0 1 0
    outer loop
      vertex 0 -4.5 5.51073e-016
      vertex 100 -4.5 -4.75
      vertex 0 -4.5 -4.75
    endloop
  endfacet
  facet normal 0 -1 0
    outer loop
      vertex 0 -2.25 -4.75
      vertex 100 -2.25 2.75536e-016
      vertex 0 -2.25 2.75536e-016
    endloop
  endfacet
  facet normal 0 -1 -0
    outer loop
      vertex 100 -2.25 2.75536e-016
      vertex 0 -2.25 -4.75
      vertex 100 -2.25 -4.75
    endloop
  endfacet
  facet normal 0 -1 0
    outer loop
      vertex 0 -9.25 -7
      vertex 100 -9.25 -4.75
      vertex 0 -9.25 -4.75
    endloop
  endfacet
  facet normal 0 -1 -0
    outer loop
      vertex 100 -9.25 -4.75
      vertex 0 -9.25 -7
      vertex 100 -9.25 -7
    endloop
  endfacet
  facet normal -0 0 1
    outer loop
      vertex 0 -6.75 -4.75
      vertex 100 -9.25 -4.75
      vertex 100 -6.75 -4.75
    endloop
  endfacet
  facet normal 0 0 1
    outer loop
      vertex 100 -9.25 -4.75
      vertex 0 -6.75 -4.75
      vertex 0 -9.25 -4.75
    endloop
  endfacet
endsolid OpenSCAD_Model
